G04*
G04 #@! TF.GenerationSoftware,Altium Limited,Altium Designer,22.6.1 (34)*
G04*
G04 Layer_Color=8421504*
%FSLAX25Y25*%
%MOIN*%
G70*
G04*
G04 #@! TF.SameCoordinates,DDC90878-0471-41C9-9F99-EECD3968BD0F*
G04*
G04*
G04 #@! TF.FilePolarity,Positive*
G04*
G01*
G75*
%ADD14R,0.03543X0.05906*%
%ADD15R,0.02756X0.02756*%
%ADD16R,0.09843X0.04724*%
%ADD17R,0.02874X0.03701*%
%ADD18R,0.07165X0.04213*%
%ADD19R,0.04063X0.02449*%
%ADD20R,0.04063X0.01968*%
%ADD21R,0.03543X0.02756*%
%ADD22R,0.03740X0.03150*%
%ADD23R,0.03150X0.03740*%
%ADD24R,0.04213X0.07165*%
%ADD25R,0.03937X0.10827*%
%ADD26R,0.07111X0.05136*%
%ADD27R,0.03701X0.02874*%
%ADD28R,0.06890X0.03937*%
%ADD29R,0.02756X0.03543*%
D14*
X326202Y461559D02*
D03*
X320296D02*
D03*
X314391D02*
D03*
X308485D02*
D03*
X302580D02*
D03*
X296674D02*
D03*
X290769D02*
D03*
X284863D02*
D03*
X278958D02*
D03*
Y392661D02*
D03*
X284863D02*
D03*
X290769D02*
D03*
X296674D02*
D03*
X302580D02*
D03*
X308485D02*
D03*
X314391D02*
D03*
X320296D02*
D03*
X326202D02*
D03*
D15*
X301792Y423331D02*
D03*
Y419000D02*
D03*
X306123D02*
D03*
Y423331D02*
D03*
Y427661D02*
D03*
X301792D02*
D03*
X297462D02*
D03*
Y423331D02*
D03*
Y419000D02*
D03*
D16*
X159327Y349158D02*
D03*
Y359000D02*
D03*
Y368843D02*
D03*
X137673D02*
D03*
Y359000D02*
D03*
Y349158D02*
D03*
D17*
X177705Y298500D02*
D03*
X183295D02*
D03*
D18*
X327500Y274000D02*
D03*
Y284866D02*
D03*
X244000Y342067D02*
D03*
Y352933D02*
D03*
X259500Y321933D02*
D03*
Y311067D02*
D03*
D19*
X348850Y281480D02*
D03*
Y274520D02*
D03*
X340150D02*
D03*
Y281480D02*
D03*
D20*
X348850Y278000D02*
D03*
X340150D02*
D03*
D21*
X285500Y275500D02*
D03*
Y269595D02*
D03*
D22*
X316500Y379650D02*
D03*
Y373350D02*
D03*
X325500Y379650D02*
D03*
Y373350D02*
D03*
X307000Y379650D02*
D03*
Y373350D02*
D03*
D23*
X183350Y350000D02*
D03*
X189650D02*
D03*
X182350Y328500D02*
D03*
X188650D02*
D03*
D24*
X268500Y352500D02*
D03*
X257634D02*
D03*
X273933Y341500D02*
D03*
X263067D02*
D03*
X243433Y329000D02*
D03*
X232567D02*
D03*
X243933Y306500D02*
D03*
X233067D02*
D03*
X243433Y317500D02*
D03*
X232567D02*
D03*
X308933Y300500D02*
D03*
X298067D02*
D03*
D25*
X308374Y338319D02*
D03*
Y315681D02*
D03*
X292626Y338319D02*
D03*
Y315681D02*
D03*
D26*
X233000Y353500D02*
D03*
Y342470D02*
D03*
X275547Y325785D02*
D03*
Y314756D02*
D03*
D27*
X249750Y327028D02*
D03*
Y321437D02*
D03*
X191000Y297205D02*
D03*
Y302795D02*
D03*
D28*
X287194Y300863D02*
D03*
Y289446D02*
D03*
D29*
X177047Y306500D02*
D03*
X182953D02*
D03*
M02*
