G04*
G04 #@! TF.GenerationSoftware,Altium Limited,Altium Designer,22.6.1 (34)*
G04*
G04 Layer_Color=65535*
%FSLAX25Y25*%
%MOIN*%
G70*
G04*
G04 #@! TF.SameCoordinates,DDC90878-0471-41C9-9F99-EECD3968BD0F*
G04*
G04*
G04 #@! TF.FilePolarity,Positive*
G04*
G01*
G75*
%ADD10C,0.00394*%
%ADD11C,0.00787*%
%ADD12C,0.00282*%
%ADD13C,0.01000*%
D10*
X161268Y310216D02*
G03*
X160874Y310216I-197J0D01*
G01*
D02*
G03*
X161268Y310216I197J0D01*
G01*
X325808Y466480D02*
G03*
X326202Y466480I197J0D01*
G01*
D02*
G03*
X325808Y466480I-197J0D01*
G01*
X308374Y345504D02*
G03*
X308374Y345898I0J197D01*
G01*
D02*
G03*
X308374Y345504I0J-197D01*
G01*
X153000Y267894D02*
X157291D01*
Y276752D01*
X153000Y324980D02*
X157291D01*
Y316122D02*
Y324980D01*
X101819Y267894D02*
X133315D01*
X101819D02*
Y324980D01*
X131346D01*
D11*
X153239Y413176D02*
G03*
X153239Y455708I48215J21266D01*
G01*
X335051Y281480D02*
G03*
X335445Y281480I197J0D01*
G01*
D02*
G03*
X335051Y281480I-197J0D01*
G01*
D02*
G03*
X335445Y281480I197J0D01*
G01*
X261500Y470756D02*
Y475500D01*
Y470756D02*
X311500D01*
Y480244D01*
X266500D02*
X311500D01*
X258303Y466484D02*
X263500D01*
X258303Y444516D02*
Y466484D01*
Y444516D02*
X268697D01*
Y460500D01*
X340256Y336000D02*
Y381000D01*
X349744D01*
Y331000D02*
Y381000D01*
X345000Y331000D02*
X349744D01*
X138606Y455702D02*
X153287D01*
X138606Y413182D02*
Y455702D01*
Y413182D02*
X153236D01*
X323705Y356591D02*
X329000D01*
X323705Y295409D02*
Y356591D01*
Y295409D02*
X334295D01*
Y351000D01*
X280500Y282500D02*
Y292500D01*
X250500Y282500D02*
X280500D01*
X250500D02*
Y292500D01*
X280500D01*
X280484Y273500D02*
Y278697D01*
X258516D02*
X280484D01*
X258516Y268303D02*
Y278697D01*
Y268303D02*
X274500D01*
X248023Y287500D02*
Y292244D01*
X198023D02*
X248023D01*
X198023Y282756D02*
Y292244D01*
Y282756D02*
X243023D01*
X210000Y303909D02*
X215295D01*
Y365090D01*
X204705D02*
X215295D01*
X204705Y309500D02*
Y365090D01*
X289090Y367000D02*
Y372295D01*
X227909D02*
X289090D01*
X227909Y361705D02*
Y372295D01*
Y361705D02*
X283500D01*
X263500Y387516D02*
X268697D01*
Y409484D01*
X258303D02*
X268697D01*
X258303Y393500D02*
Y409484D01*
X170516Y273803D02*
Y279000D01*
Y273803D02*
X192484D01*
Y284197D01*
X176500D02*
X192484D01*
X330533Y462543D02*
X354155D01*
Y391677D02*
Y462543D01*
X330533Y391677D02*
X354155D01*
X275414Y399551D02*
Y454669D01*
X142595Y341283D02*
X154405D01*
X142595Y376716D02*
X154405D01*
X142595Y372083D02*
Y376716D01*
Y341283D02*
Y345917D01*
X154405Y372083D02*
Y376716D01*
Y341283D02*
Y345917D01*
X324744Y279433D02*
X330256D01*
X286878Y271760D02*
Y273335D01*
X284122Y271760D02*
Y273335D01*
X319748Y370398D02*
Y379650D01*
X313252Y370398D02*
X319748D01*
X313252D02*
Y379650D01*
X328748Y370398D02*
Y379650D01*
X322252Y370398D02*
X328748D01*
X322252D02*
Y379650D01*
X183350Y353248D02*
X192602D01*
Y346752D02*
Y353248D01*
X183350Y346752D02*
X192602D01*
X310248Y370398D02*
Y379650D01*
X303752Y370398D02*
X310248D01*
X303752D02*
Y379650D01*
X263067Y349744D02*
Y355256D01*
X268500Y338744D02*
Y344256D01*
X287705Y314795D02*
X288689D01*
X287705D02*
Y339205D01*
X288689D01*
X312311Y314795D02*
X313295D01*
Y339205D01*
X312311D02*
X313295D01*
X296563Y314795D02*
X304437D01*
X296563Y339205D02*
X304437D01*
X182350Y331748D02*
X191602D01*
Y325252D02*
Y331748D01*
X182350Y325252D02*
X191602D01*
X229445Y346219D02*
Y349751D01*
X236556Y346219D02*
Y349751D01*
X238000Y326244D02*
Y331756D01*
X241244Y347500D02*
X246756D01*
X238500Y303744D02*
Y309256D01*
X238000Y314744D02*
Y320256D01*
X284536Y295155D02*
X289851D01*
X256744Y316500D02*
X262256D01*
X271992Y318505D02*
Y322036D01*
X279103Y318505D02*
Y322036D01*
X179213Y307878D02*
X180787D01*
X179213Y305122D02*
X180787D01*
X303500Y297744D02*
Y303256D01*
D12*
X164122Y344772D02*
G03*
X164122Y345055I0J142D01*
G01*
D02*
G03*
X164122Y344772I0J-142D01*
G01*
D13*
X113005Y337499D02*
Y332501D01*
X114004Y331501D01*
X116004D01*
X117003Y332501D01*
Y337499D01*
X123001Y336499D02*
X122002Y337499D01*
X120002D01*
X119003Y336499D01*
Y335500D01*
X120002Y334500D01*
X122002D01*
X123001Y333500D01*
Y332501D01*
X122002Y331501D01*
X120002D01*
X119003Y332501D01*
X125001Y337499D02*
Y331501D01*
X128000D01*
X128999Y332501D01*
Y333500D01*
X128000Y334500D01*
X125001D01*
X128000D01*
X128999Y335500D01*
Y336499D01*
X128000Y337499D01*
X125001D01*
X136997Y331501D02*
Y335500D01*
X138996Y337499D01*
X140996Y335500D01*
Y331501D01*
Y334500D01*
X136997D01*
X252000Y478999D02*
X250001D01*
X251001D01*
Y474001D01*
X250001Y473001D01*
X249001D01*
X248002Y474001D01*
X256999Y473001D02*
Y478999D01*
X254000Y476000D01*
X257998D01*
X260501Y422502D02*
Y420503D01*
Y421503D01*
X265499D01*
X266499Y420503D01*
Y419503D01*
X265499Y418504D01*
X261501Y424502D02*
X260501Y425501D01*
Y427501D01*
X261501Y428500D01*
X262500D01*
X263500Y427501D01*
Y426501D01*
Y427501D01*
X264500Y428500D01*
X265499D01*
X266499Y427501D01*
Y425501D01*
X265499Y424502D01*
X262500Y430500D02*
X266499Y432499D01*
X262500Y434498D01*
X261501Y436498D02*
X260501Y437497D01*
Y439497D01*
X261501Y440496D01*
X262500D01*
X263500Y439497D01*
Y438497D01*
Y439497D01*
X264500Y440496D01*
X265499D01*
X266499Y439497D01*
Y437497D01*
X265499Y436498D01*
X358999Y374500D02*
Y376499D01*
Y375499D01*
X354001D01*
X353001Y376499D01*
Y377499D01*
X354001Y378498D01*
X358999Y368502D02*
Y372500D01*
X356000D01*
X357000Y370501D01*
Y369501D01*
X356000Y368502D01*
X354001D01*
X353001Y369501D01*
Y371501D01*
X354001Y372500D01*
X342999Y320499D02*
X343999Y321498D01*
Y323498D01*
X342999Y324497D01*
X342000D01*
X341000Y323498D01*
Y321498D01*
X340000Y320499D01*
X339001D01*
X338001Y321498D01*
Y323498D01*
X339001Y324497D01*
X343999Y318499D02*
X338001D01*
X340000Y316500D01*
X338001Y314501D01*
X343999D01*
Y312501D02*
X338001D01*
Y309502D01*
X339001Y308503D01*
X342999D01*
X343999Y309502D01*
Y312501D01*
X251100Y301898D02*
Y295900D01*
X254099D01*
X255099Y296900D01*
Y297899D01*
X254099Y298899D01*
X251100D01*
X254099D01*
X255099Y299899D01*
Y300898D01*
X254099Y301898D01*
X251100D01*
X258098Y295900D02*
X260097D01*
X261097Y296900D01*
Y298899D01*
X260097Y299899D01*
X258098D01*
X257098Y298899D01*
Y296900D01*
X258098Y295900D01*
X264096D02*
X266095D01*
X267095Y296900D01*
Y298899D01*
X266095Y299899D01*
X264096D01*
X263096Y298899D01*
Y296900D01*
X264096Y295900D01*
X270094Y300898D02*
Y299899D01*
X269094D01*
X271094D01*
X270094D01*
Y296900D01*
X271094Y295900D01*
X237002Y276499D02*
X235003D01*
X236002D01*
Y271501D01*
X235003Y270501D01*
X234003D01*
X233003Y271501D01*
X239001Y270501D02*
Y276499D01*
X241001Y274500D01*
X243000Y276499D01*
Y270501D01*
X245000D02*
X246999D01*
X245999D01*
Y274500D01*
X245000D01*
X253997D02*
X250998D01*
X249998Y273500D01*
Y271501D01*
X250998Y270501D01*
X253997D01*
X204525Y276999D02*
X203525Y277999D01*
X201526D01*
X200526Y276999D01*
Y273001D01*
X201526Y272001D01*
X203525D01*
X204525Y273001D01*
Y275000D01*
X202525D01*
X206524Y272001D02*
Y277999D01*
X209523D01*
X210523Y276999D01*
Y275000D01*
X209523Y274000D01*
X206524D01*
X212522Y277999D02*
X214522D01*
X213522D01*
Y272001D01*
X212522D01*
X214522D01*
X220520Y277999D02*
X218520D01*
X217520Y276999D01*
Y273001D01*
X218520Y272001D01*
X220520D01*
X221519Y273001D01*
Y276999D01*
X220520Y277999D01*
X208599Y374198D02*
X207599Y375198D01*
X205600D01*
X204600Y374198D01*
Y373199D01*
X205600Y372199D01*
X207599D01*
X208599Y371199D01*
Y370200D01*
X207599Y369200D01*
X205600D01*
X204600Y370200D01*
X210598Y369200D02*
Y375198D01*
X213597D01*
X214597Y374198D01*
Y372199D01*
X213597Y371199D01*
X210598D01*
X216596Y375198D02*
X218596D01*
X217596D01*
Y369200D01*
X216596D01*
X218596D01*
X232004Y380499D02*
X230005D01*
X231005D01*
Y375501D01*
X230005Y374501D01*
X229005D01*
X228006Y375501D01*
X234004Y380499D02*
Y375501D01*
X235003Y374501D01*
X237003D01*
X238002Y375501D01*
Y380499D01*
X244000Y379499D02*
X243001Y380499D01*
X241001D01*
X240002Y379499D01*
Y378500D01*
X241001Y377500D01*
X243001D01*
X244000Y376500D01*
Y375501D01*
X243001Y374501D01*
X241001D01*
X240002Y375501D01*
X246000Y374501D02*
Y378500D01*
X247999Y380499D01*
X249998Y378500D01*
Y374501D01*
Y377500D01*
X246000D01*
X251998Y374501D02*
Y380499D01*
X254997D01*
X255996Y379499D01*
Y377500D01*
X254997Y376500D01*
X251998D01*
X253997D02*
X255996Y374501D01*
X257996Y380499D02*
X261995D01*
X259995D01*
Y374501D01*
X250001Y393000D02*
Y391001D01*
Y392000D01*
X254999D01*
X255999Y391001D01*
Y390001D01*
X254999Y389001D01*
X255999Y394999D02*
Y396999D01*
Y395999D01*
X250001D01*
X251001Y394999D01*
X175502Y265001D02*
Y270999D01*
X177502Y269000D01*
X179501Y270999D01*
Y265001D01*
X182500D02*
X184499D01*
X185499Y266001D01*
Y268000D01*
X184499Y269000D01*
X182500D01*
X181500Y268000D01*
Y266001D01*
X182500Y265001D01*
X188498Y269999D02*
Y269000D01*
X187498D01*
X189498D01*
X188498D01*
Y266001D01*
X189498Y265001D01*
X335003Y476499D02*
X331004D01*
Y470501D01*
X335003D01*
X331004Y473500D02*
X333004D01*
X341001Y475499D02*
X340002Y476499D01*
X338002D01*
X337002Y475499D01*
Y474500D01*
X338002Y473500D01*
X340002D01*
X341001Y472500D01*
Y471501D01*
X340002Y470501D01*
X338002D01*
X337002Y471501D01*
X343001Y470501D02*
Y476499D01*
X346000D01*
X346999Y475499D01*
Y473500D01*
X346000Y472500D01*
X343001D01*
X348998Y476499D02*
X350998D01*
X349998D01*
Y470501D01*
X348998D01*
X350998D01*
X357996Y475499D02*
X356996Y476499D01*
X354997D01*
X353997Y475499D01*
Y471501D01*
X354997Y470501D01*
X356996D01*
X357996Y471501D01*
X133599Y388898D02*
X132599Y389898D01*
X130600D01*
X129600Y388898D01*
Y387899D01*
X130600Y386899D01*
X132599D01*
X133599Y385899D01*
Y384900D01*
X132599Y383900D01*
X130600D01*
X129600Y384900D01*
X139597Y383900D02*
X135598D01*
X139597Y387899D01*
Y388898D01*
X138597Y389898D01*
X136598D01*
X135598Y388898D01*
X178001Y293999D02*
X177001Y294999D01*
X175002D01*
X174002Y293999D01*
Y290001D01*
X175002Y289001D01*
X177001D01*
X178001Y290001D01*
X183999Y289001D02*
X180000D01*
X183999Y293000D01*
Y293999D01*
X182999Y294999D01*
X181000D01*
X180000Y293999D01*
X185998Y289001D02*
X187998D01*
X186998D01*
Y294999D01*
X185998Y293999D01*
X323001Y293499D02*
X322002Y294499D01*
X320002D01*
X319003Y293499D01*
Y289501D01*
X320002Y288501D01*
X322002D01*
X323001Y289501D01*
X328999Y288501D02*
X325001D01*
X328999Y292500D01*
Y293499D01*
X328000Y294499D01*
X326000D01*
X325001Y293499D01*
X330999Y289501D02*
X331998Y288501D01*
X333998D01*
X334997Y289501D01*
Y293499D01*
X333998Y294499D01*
X331998D01*
X330999Y293499D01*
Y292500D01*
X331998Y291500D01*
X334997D01*
X341503Y289501D02*
Y295499D01*
X343502Y293500D01*
X345502Y295499D01*
Y289501D01*
X347501Y295499D02*
X349500D01*
X348501D01*
Y289501D01*
X347501D01*
X349500D01*
X356498Y294499D02*
X355499Y295499D01*
X353499D01*
X352500Y294499D01*
Y290501D01*
X353499Y289501D01*
X355499D01*
X356498Y290501D01*
X358498Y289501D02*
X360497D01*
X359497D01*
Y295499D01*
X358498Y294499D01*
X295999Y266050D02*
X290001D01*
Y269049D01*
X291001Y270048D01*
X293000D01*
X294000Y269049D01*
Y266050D01*
Y268049D02*
X295999Y270048D01*
Y276047D02*
Y272048D01*
X292000Y276047D01*
X291001D01*
X290001Y275047D01*
Y273048D01*
X291001Y272048D01*
Y278046D02*
X290001Y279046D01*
Y281045D01*
X291001Y282045D01*
X294999D01*
X295999Y281045D01*
Y279046D01*
X294999Y278046D01*
X291001D01*
X332001Y382499D02*
Y376501D01*
X335999D01*
X180501Y360000D02*
X179501Y359001D01*
Y357001D01*
X180501Y356002D01*
X184499D01*
X185499Y357001D01*
Y359001D01*
X184499Y360000D01*
X179501Y362000D02*
X185499D01*
X182500D01*
X181500Y362999D01*
Y364999D01*
X182500Y365998D01*
X185499D01*
X296001Y381999D02*
Y376001D01*
Y379000D01*
X299999D01*
Y381999D01*
Y376001D01*
X276999Y355500D02*
X277999Y356499D01*
Y358499D01*
X276999Y359498D01*
X273001D01*
X272001Y358499D01*
Y356499D01*
X273001Y355500D01*
X272001Y349502D02*
Y353500D01*
X276000Y349502D01*
X276999D01*
X277999Y350501D01*
Y352501D01*
X276999Y353500D01*
X284932Y345000D02*
X285932Y345999D01*
Y347999D01*
X284932Y348998D01*
X280934D01*
X279934Y347999D01*
Y345999D01*
X280934Y345000D01*
X284932Y343000D02*
X285932Y342001D01*
Y340001D01*
X284932Y339002D01*
X283933D01*
X282933Y340001D01*
Y341001D01*
Y340001D01*
X281933Y339002D01*
X280934D01*
X279934Y340001D01*
Y342001D01*
X280934Y343000D01*
X293000Y356499D02*
X292000Y357499D01*
X290001D01*
X289001Y356499D01*
Y355500D01*
X290001Y354500D01*
X292000D01*
X293000Y353500D01*
Y352501D01*
X292000Y351501D01*
X290001D01*
X289001Y352501D01*
X294999Y351501D02*
X296999D01*
X295999D01*
Y357499D01*
X294999Y356499D01*
X184999Y336501D02*
X179001D01*
Y339500D01*
X180001Y340499D01*
X182000D01*
X183000Y339500D01*
Y336501D01*
X220501Y347500D02*
X219501Y346501D01*
Y344501D01*
X220501Y343502D01*
X224499D01*
X225499Y344501D01*
Y346501D01*
X224499Y347500D01*
X220501Y349500D02*
X219501Y350499D01*
Y352499D01*
X220501Y353498D01*
X221500D01*
X222500Y352499D01*
X223500Y353498D01*
X224499D01*
X225499Y352499D01*
Y350499D01*
X224499Y349500D01*
X223500D01*
X222500Y350499D01*
X221500Y349500D01*
X220501D01*
X222500Y350499D02*
Y352499D01*
X221501Y328500D02*
X220501Y327501D01*
Y325501D01*
X221501Y324502D01*
X225499D01*
X226499Y325501D01*
Y327501D01*
X225499Y328500D01*
X226499Y333499D02*
X220501D01*
X223500Y330500D01*
Y334498D01*
X254499Y344500D02*
X255499Y345499D01*
Y347499D01*
X254499Y348498D01*
X250501D01*
X249501Y347499D01*
Y345499D01*
X250501Y344500D01*
X255499Y338502D02*
X254499Y340501D01*
X252500Y342500D01*
X250501D01*
X249501Y341501D01*
Y339501D01*
X250501Y338502D01*
X251500D01*
X252500Y339501D01*
Y342500D01*
X252000Y335499D02*
X251001Y336499D01*
X249001D01*
X248002Y335499D01*
Y331501D01*
X249001Y330501D01*
X251001D01*
X252000Y331501D01*
X254000D02*
X254999Y330501D01*
X256999D01*
X257998Y331501D01*
Y335499D01*
X256999Y336499D01*
X254999D01*
X254000Y335499D01*
Y334500D01*
X254999Y333500D01*
X257998D01*
X222501Y303000D02*
X221501Y302001D01*
Y300001D01*
X222501Y299002D01*
X226499D01*
X227499Y300001D01*
Y302001D01*
X226499Y303000D01*
X221501Y305000D02*
Y308998D01*
X222501D01*
X226499Y305000D01*
X227499D01*
X199499Y306999D02*
X200499Y307998D01*
Y309998D01*
X199499Y310997D01*
X195501D01*
X194501Y309998D01*
Y307998D01*
X195501Y306999D01*
X194501Y301001D02*
Y304999D01*
X198500Y301001D01*
X199499D01*
X200499Y302000D01*
Y304000D01*
X199499Y304999D01*
X194501Y295003D02*
Y299001D01*
X198500Y295003D01*
X199499D01*
X200499Y296002D01*
Y298002D01*
X199499Y299001D01*
X222001Y316000D02*
X221001Y315001D01*
Y313001D01*
X222001Y312002D01*
X225999D01*
X226999Y313001D01*
Y315001D01*
X225999Y316000D01*
X221001Y321998D02*
Y318000D01*
X224000D01*
X223000Y319999D01*
Y320999D01*
X224000Y321998D01*
X225999D01*
X226999Y320999D01*
Y318999D01*
X225999Y318000D01*
X280999Y294002D02*
X275001D01*
Y297002D01*
X276001Y298001D01*
X278000D01*
X279000Y297002D01*
Y294002D01*
Y296002D02*
X280999Y298001D01*
Y300001D02*
Y302000D01*
Y301000D01*
X275001D01*
X276001Y300001D01*
X279999Y304999D02*
X280999Y305998D01*
Y307998D01*
X279999Y308998D01*
X276001D01*
X275001Y307998D01*
Y305998D01*
X276001Y304999D01*
X277000D01*
X278000Y305998D01*
Y308998D01*
X269499Y321999D02*
X270499Y322998D01*
Y324998D01*
X269499Y325998D01*
X265501D01*
X264501Y324998D01*
Y322998D01*
X265501Y321999D01*
X264501Y320000D02*
Y318000D01*
Y319000D01*
X270499D01*
X269499Y320000D01*
Y315001D02*
X270499Y314001D01*
Y312002D01*
X269499Y311002D01*
X265501D01*
X264501Y312002D01*
Y314001D01*
X265501Y315001D01*
X269499D01*
X275500Y335499D02*
X274500Y336499D01*
X272501D01*
X271501Y335499D01*
Y331501D01*
X272501Y330501D01*
X274500D01*
X275500Y331501D01*
X277499Y330501D02*
X279499D01*
X278499D01*
Y336499D01*
X277499Y335499D01*
X170502Y311001D02*
Y316999D01*
X173502D01*
X174501Y315999D01*
Y314000D01*
X173502Y313000D01*
X170502D01*
X172502D02*
X174501Y311001D01*
X176500D02*
X178500D01*
X177500D01*
Y316999D01*
X176500Y315999D01*
X185498Y316999D02*
X183498Y315999D01*
X181499Y314000D01*
Y312001D01*
X182499Y311001D01*
X184498D01*
X185498Y312001D01*
Y313000D01*
X184498Y314000D01*
X181499D01*
X319999Y306999D02*
X320999Y307999D01*
Y309998D01*
X319999Y310998D01*
X316001D01*
X315001Y309998D01*
Y307999D01*
X316001Y306999D01*
X315001Y305000D02*
Y303000D01*
Y304000D01*
X320999D01*
X319999Y305000D01*
X315001Y300002D02*
Y298002D01*
Y299002D01*
X320999D01*
X319999Y300002D01*
X113503Y343500D02*
X119501D01*
Y346499D01*
X118501Y347499D01*
X117501D01*
X116502Y346499D01*
Y343500D01*
Y346499D01*
X115502Y347499D01*
X114502D01*
X113503Y346499D01*
Y343500D01*
X115502Y349498D02*
X118501D01*
X119501Y350498D01*
Y353497D01*
X120500D01*
X121500Y352497D01*
Y351497D01*
X119501Y353497D02*
X115502D01*
X113503Y361494D02*
X119501D01*
X117501D01*
X113503Y365493D01*
X116502Y362494D01*
X119501Y365493D01*
X114502Y371491D02*
X113503Y370491D01*
Y368492D01*
X114502Y367492D01*
X115502D01*
X116502Y368492D01*
Y370491D01*
X117501Y371491D01*
X118501D01*
X119501Y370491D01*
Y368492D01*
X118501Y367492D01*
X115502Y380488D02*
Y382487D01*
X116502Y383487D01*
X119501D01*
Y380488D01*
X118501Y379488D01*
X117501Y380488D01*
Y383487D01*
X119501Y385486D02*
X115502D01*
Y388485D01*
X116502Y389485D01*
X119501D01*
X113503Y395483D02*
X119501D01*
Y392484D01*
X118501Y391484D01*
X116502D01*
X115502Y392484D01*
Y395483D01*
X119501Y403481D02*
X113503D01*
Y406480D01*
X114502Y407479D01*
X116502D01*
X117501Y406480D01*
Y403481D01*
Y405480D02*
X119501Y407479D01*
X113503Y409479D02*
X119501D01*
Y412478D01*
X118501Y413477D01*
X114502D01*
X113503Y412478D01*
Y409479D01*
X103500Y346999D02*
Y343000D01*
X109498D01*
Y346999D01*
X106499Y343000D02*
Y344999D01*
X103500Y348998D02*
X109498D01*
Y352997D01*
X103500Y358995D02*
Y354996D01*
X109498D01*
Y358995D01*
X106499Y354996D02*
Y356996D01*
X104500Y364993D02*
X103500Y363993D01*
Y361994D01*
X104500Y360994D01*
X108498D01*
X109498Y361994D01*
Y363993D01*
X108498Y364993D01*
X104500Y366992D02*
X103500Y367992D01*
Y369991D01*
X104500Y370991D01*
X105499D01*
X106499Y369991D01*
Y368992D01*
Y369991D01*
X107499Y370991D01*
X108498D01*
X109498Y369991D01*
Y367992D01*
X108498Y366992D01*
X109498Y372990D02*
Y374990D01*
Y373990D01*
X103500D01*
X104500Y372990D01*
X109498Y377989D02*
Y379988D01*
Y378988D01*
X103500D01*
X104500Y377989D01*
X103500Y382987D02*
Y386986D01*
X104500D01*
X108498Y382987D01*
X109498D01*
X103500Y394983D02*
X107499D01*
X109498Y396983D01*
X107499Y398982D01*
X103500D01*
X109498Y400981D02*
Y402981D01*
Y401981D01*
X103500D01*
X104500Y400981D01*
X109498Y411978D02*
X103500D01*
X105499Y413977D01*
X103500Y415976D01*
X109498D01*
Y417976D02*
Y419975D01*
Y418975D01*
X105499D01*
Y417976D01*
Y426973D02*
Y423974D01*
X106499Y422974D01*
X108498D01*
X109498Y423974D01*
Y426973D01*
X103500Y434970D02*
X109498D01*
Y437969D01*
X108498Y438969D01*
X107499D01*
X106499Y437969D01*
Y434970D01*
Y437969D01*
X105499Y438969D01*
X104500D01*
X103500Y437969D01*
Y434970D01*
X109498Y441968D02*
Y443967D01*
X108498Y444967D01*
X106499D01*
X105499Y443967D01*
Y441968D01*
X106499Y440968D01*
X108498D01*
X109498Y441968D01*
X105499Y447966D02*
Y449965D01*
X106499Y450965D01*
X109498D01*
Y447966D01*
X108498Y446966D01*
X107499Y447966D01*
Y450965D01*
X105499Y452964D02*
X109498D01*
X107499D01*
X106499Y453964D01*
X105499Y454964D01*
Y455964D01*
X103500Y462961D02*
X109498D01*
Y459962D01*
X108498Y458962D01*
X106499D01*
X105499Y459962D01*
Y462961D01*
M02*
