G04*
G04 #@! TF.GenerationSoftware,Altium Limited,Altium Designer,22.6.1 (34)*
G04*
G04 Layer_Color=16711935*
%FSLAX25Y25*%
%MOIN*%
G70*
G04*
G04 #@! TF.SameCoordinates,DDC90878-0471-41C9-9F99-EECD3968BD0F*
G04*
G04*
G04 #@! TF.FilePolarity,Positive*
G04*
G01*
G75*
%ADD10C,0.00394*%
%ADD11C,0.00787*%
%ADD114C,0.00800*%
G36*
X270133Y351884D02*
X268165D01*
Y351869D01*
X264428D01*
Y351872D01*
X264228D01*
Y351867D01*
X260489D01*
Y351884D01*
X258524D01*
Y351886D01*
X258322D01*
Y351867D01*
X254583D01*
Y351892D01*
X254385D01*
Y351865D01*
X250645D01*
Y351895D01*
X250448D01*
Y351890D01*
X246701D01*
Y351902D01*
X246511D01*
Y351881D01*
X244544D01*
Y351868D01*
X240802D01*
Y351887D01*
X240606D01*
Y351884D01*
X236852D01*
Y353046D01*
X240606D01*
Y353046D01*
X240802D01*
Y353046D01*
X244544D01*
Y353046D01*
X244725D01*
Y353046D01*
X248481D01*
Y353046D01*
X248671D01*
Y353046D01*
X258322D01*
Y353046D01*
X258524D01*
Y353046D01*
X262259D01*
Y353046D01*
X262459D01*
Y353046D01*
X266196D01*
Y353046D01*
X266406D01*
Y353046D01*
X270133D01*
Y351884D01*
D02*
G37*
G36*
X275449Y344012D02*
X275448D01*
Y343794D01*
X275449D01*
Y340058D01*
X275448D01*
Y339857D01*
X275449D01*
Y336119D01*
X275448D01*
Y335920D01*
X275449D01*
Y332181D01*
Y330211D01*
Y328238D01*
Y326270D01*
X275448D01*
Y326078D01*
X275449D01*
Y322330D01*
X275448D01*
Y322141D01*
X275449D01*
Y318392D01*
X275448D01*
Y318204D01*
X275449D01*
Y314461D01*
X274271D01*
Y318204D01*
X274292D01*
Y318392D01*
X274282D01*
Y320363D01*
X274278D01*
Y324109D01*
X274286D01*
Y326078D01*
X274302D01*
Y326270D01*
X274290D01*
Y330015D01*
X274306D01*
Y330211D01*
X274296D01*
Y332181D01*
X274281D01*
Y335920D01*
X274304D01*
Y336119D01*
X274276D01*
Y339857D01*
X274285D01*
Y340058D01*
X274278D01*
Y343794D01*
X274290D01*
Y345763D01*
X274301D01*
Y347731D01*
X275449D01*
Y344012D01*
D02*
G37*
G36*
X232733Y343999D02*
X232732D01*
Y343794D01*
X232733D01*
Y340056D01*
X232732D01*
Y339857D01*
X232733D01*
Y336123D01*
X232732D01*
Y335920D01*
X232733D01*
Y332182D01*
Y330212D01*
Y328241D01*
Y326269D01*
X232732D01*
Y326078D01*
X232733D01*
Y322332D01*
X232732D01*
Y322141D01*
X232733D01*
Y318385D01*
X232732D01*
Y318204D01*
X232733D01*
Y314450D01*
X231532D01*
Y318204D01*
X231540D01*
Y318385D01*
X231523D01*
Y322141D01*
X231534D01*
Y324109D01*
X231536D01*
Y326078D01*
X231536D01*
Y326269D01*
X231524D01*
Y330015D01*
X231537D01*
Y331983D01*
X231545D01*
Y332182D01*
X231510D01*
Y335920D01*
X231525D01*
Y337889D01*
X231525D01*
Y339857D01*
X231527D01*
Y341826D01*
X231545D01*
Y342033D01*
X231531D01*
Y345763D01*
X231538D01*
Y347731D01*
X232733D01*
Y343999D01*
D02*
G37*
G36*
X270133Y309145D02*
X268165D01*
Y309137D01*
X264432D01*
Y309148D01*
X264228D01*
Y309142D01*
X262259D01*
Y309119D01*
X260291D01*
Y309109D01*
X256557D01*
Y309113D01*
X254584D01*
Y309117D01*
X254385D01*
Y309110D01*
X250640D01*
Y309129D01*
X250448D01*
Y309118D01*
X246699D01*
Y309140D01*
X246511D01*
Y309111D01*
X242753D01*
Y309131D01*
X242574D01*
Y309108D01*
X238807D01*
Y309117D01*
X236842D01*
Y310330D01*
X240606D01*
Y310330D01*
X240794D01*
Y310330D01*
X244544D01*
Y310330D01*
X244737D01*
Y310330D01*
X248481D01*
Y310330D01*
X248674D01*
Y310330D01*
X258322D01*
Y310330D01*
X258526D01*
Y310330D01*
X262259D01*
Y310330D01*
X262457D01*
Y310330D01*
X266196D01*
Y310330D01*
X266396D01*
Y310330D01*
X270133D01*
Y309145D01*
D02*
G37*
D10*
X300350Y284575D02*
X306650D01*
X300350Y281425D02*
Y284575D01*
Y281425D02*
X306650D01*
Y284575D01*
X261500Y470756D02*
Y480244D01*
X311500D01*
Y470756D02*
Y480244D01*
X261500Y470756D02*
X311500D01*
X258303Y466484D02*
X268697D01*
Y444516D02*
Y466484D01*
X258303Y444516D02*
X268697D01*
X258303D02*
Y466484D01*
X349744Y331000D02*
Y381000D01*
X340256D02*
X349744D01*
X340256Y331000D02*
Y381000D01*
Y331000D02*
X349744D01*
X323705Y356591D02*
X334295D01*
Y295409D02*
Y356591D01*
X323705Y295409D02*
X334295D01*
X323705D02*
Y356591D01*
X340083Y283405D02*
X355831D01*
Y271595D02*
Y283405D01*
X340083Y271595D02*
X355831D01*
X340083D02*
Y283405D01*
X280484Y268303D02*
Y278697D01*
X258516Y268303D02*
X280484D01*
X258516D02*
Y278697D01*
X280484D01*
X248023Y282756D02*
Y292244D01*
X198023Y282756D02*
X248023D01*
X198023D02*
Y292244D01*
X248023D01*
X204705Y303909D02*
X215295D01*
X204705D02*
Y365090D01*
X215295D01*
Y303909D02*
Y365090D01*
X289090Y361705D02*
Y372295D01*
X227909Y361705D02*
X289090D01*
X227909D02*
Y372295D01*
X289090D01*
X258303Y387516D02*
X268697D01*
X258303D02*
Y409484D01*
X268697D01*
Y387516D02*
Y409484D01*
X170516Y273803D02*
Y284197D01*
X192484D01*
Y273803D02*
Y284197D01*
X170516Y273803D02*
X192484D01*
X191303Y455709D02*
X197697D01*
X191303Y444291D02*
Y455709D01*
Y444291D02*
X197697D01*
Y455709D01*
X193957D02*
X197697Y451968D01*
X242575Y455350D02*
Y461650D01*
X239425D02*
X242575D01*
X239425Y455350D02*
Y461650D01*
Y455350D02*
X242575D01*
X173153Y448130D02*
X179847D01*
X173153Y451870D02*
X179847D01*
X173153Y448130D02*
Y451870D01*
X179847Y448130D02*
Y451870D01*
X347201Y296650D02*
X359799D01*
X347201Y290350D02*
Y296650D01*
Y290350D02*
X359799D01*
Y296650D01*
X173870Y298654D02*
Y305346D01*
X170130Y298654D02*
Y305346D01*
Y298654D02*
X173870D01*
X170130Y305346D02*
X173870D01*
X183284Y308209D02*
X187025Y304468D01*
Y296791D02*
Y308209D01*
X180631Y296791D02*
X187025D01*
X180631D02*
Y308209D01*
X187025D01*
X289461Y440563D02*
Y448437D01*
X284539D02*
X289461D01*
X284539Y440563D02*
Y448437D01*
Y440563D02*
X289461D01*
X314925Y449650D02*
X318075D01*
Y443350D02*
Y449650D01*
X314925Y443350D02*
X318075D01*
X314925D02*
Y449650D01*
X305350Y437201D02*
X311650D01*
X305350D02*
Y449799D01*
X311650D01*
Y437201D02*
Y449799D01*
X322650Y479425D02*
Y482575D01*
X316350Y479425D02*
X322650D01*
X316350D02*
Y482575D01*
X322650D01*
X324437Y471039D02*
Y475961D01*
X316563Y471039D02*
X324437D01*
X316563D02*
Y475961D01*
X324437D01*
X317425Y405350D02*
X320575D01*
Y411650D01*
X317425D02*
X320575D01*
X317425Y405350D02*
Y411650D01*
X292425Y405350D02*
X295575D01*
Y411650D01*
X292425D02*
X295575D01*
X292425Y405350D02*
Y411650D01*
X304925Y405350D02*
X308075D01*
Y411650D01*
X304925D02*
X308075D01*
X304925Y405350D02*
Y411650D01*
X202654Y433564D02*
Y437304D01*
X209347Y433564D02*
Y437304D01*
X202654Y433564D02*
X209347D01*
X202654Y437304D02*
X209347D01*
X199563Y396434D02*
X202713D01*
Y390135D02*
Y396434D01*
X199563Y390135D02*
X202713D01*
X199563D02*
Y396434D01*
X194791Y386870D02*
X201484D01*
X194791Y383130D02*
X201484D01*
Y386870D01*
X194791Y383130D02*
Y386870D01*
X188650Y326925D02*
Y330075D01*
X182350D02*
X188650D01*
X182350Y326925D02*
Y330075D01*
Y326925D02*
X188650D01*
X189650Y348425D02*
Y351575D01*
X183350Y348425D02*
X189650D01*
X183350D02*
Y351575D01*
X189650D01*
X179650Y454425D02*
Y457575D01*
X173350Y454425D02*
X179650D01*
X173350D02*
Y457575D01*
X179650D01*
X153850Y406925D02*
X160150D01*
Y410075D01*
X153850D02*
X160150D01*
X153850Y406925D02*
Y410075D01*
X152157Y401618D02*
X171843D01*
X152157Y391382D02*
Y401618D01*
Y391382D02*
X171843D01*
Y401618D01*
X168693D02*
X171843Y398468D01*
X155201Y427350D02*
Y433650D01*
X167799D01*
Y427350D02*
Y433650D01*
X155201Y427350D02*
X167799D01*
X165630Y408153D02*
Y414847D01*
X169370Y408153D02*
Y414847D01*
X165630D02*
X169370D01*
X165630Y408153D02*
X169370D01*
X188547Y402709D02*
X192287Y398969D01*
Y391291D02*
Y402709D01*
X185988Y391291D02*
X192287D01*
X185988D02*
Y402709D01*
X192287D01*
X182909Y429709D02*
X186650Y425969D01*
Y418291D02*
Y429709D01*
X180350Y418291D02*
X186650D01*
X180350D02*
Y429709D01*
X186650D01*
X293854Y297857D02*
Y342739D01*
X313146D01*
Y297857D02*
Y342739D01*
X293854Y297857D02*
X313146D01*
X284130Y340846D02*
X287870D01*
X284130Y334154D02*
X287870D01*
X284130D02*
Y340846D01*
X287870Y334154D02*
Y340846D01*
X302850Y359075D02*
X309150D01*
X302850Y355925D02*
Y359075D01*
Y355925D02*
X309150D01*
Y359075D01*
X275414Y391677D02*
Y462543D01*
Y391677D02*
X354155D01*
Y462543D01*
X275414D02*
X354155D01*
X183650Y296925D02*
Y300075D01*
X177350D02*
X183650D01*
X177350Y296925D02*
Y300075D01*
Y296925D02*
X183650D01*
X324350Y273134D02*
Y285732D01*
X330650D01*
Y273134D02*
Y285732D01*
X324350Y273134D02*
X330650D01*
X337610Y283217D02*
X351390D01*
Y272783D02*
Y283217D01*
X337610Y272783D02*
X351390D01*
X337610D02*
Y283217D01*
X283630Y275894D02*
X287370D01*
X283630Y269201D02*
X287370D01*
Y275894D01*
X283630Y269201D02*
Y275894D01*
X314925Y374402D02*
X315976Y373350D01*
X314925D02*
X318075D01*
Y379650D01*
X314925D02*
X318075D01*
X314925Y373350D02*
Y379650D01*
X323925Y374402D02*
X324976Y373350D01*
X323925D02*
X327075D01*
Y379650D01*
X323925D02*
X327075D01*
X323925Y373350D02*
Y379650D01*
X188598Y348425D02*
X189650Y349476D01*
Y348425D02*
Y351575D01*
X183350D02*
X189650D01*
X183350Y348425D02*
Y351575D01*
Y348425D02*
X189650D01*
X305425Y374402D02*
X306476Y373350D01*
X305425D02*
X308575D01*
Y379650D01*
X305425D02*
X308575D01*
X305425Y373350D02*
Y379650D01*
X256768Y349350D02*
Y355650D01*
Y349350D02*
X269366D01*
Y355650D01*
X256768D02*
X269366D01*
X262201Y338350D02*
Y344650D01*
Y338350D02*
X274799D01*
Y344650D01*
X262201D02*
X274799D01*
X313295Y314795D02*
Y339205D01*
X287705D02*
X313295D01*
X287705Y314795D02*
Y339205D01*
Y314795D02*
X313295D01*
X187598Y326925D02*
X188650Y327976D01*
Y326925D02*
Y330075D01*
X182350D02*
X188650D01*
X182350Y326925D02*
Y330075D01*
Y326925D02*
X188650D01*
X231701Y325850D02*
X244299D01*
X231701D02*
Y332150D01*
X244299D01*
Y325850D02*
Y332150D01*
X240850Y341201D02*
Y353799D01*
X247150D01*
Y341201D02*
Y353799D01*
X240850Y341201D02*
X247150D01*
X251325Y321083D02*
Y327382D01*
X248175Y321083D02*
X251325D01*
X248175D02*
Y327382D01*
X251325D01*
X232201Y303350D02*
X244799D01*
X232201D02*
Y309650D01*
X244799D01*
Y303350D02*
Y309650D01*
X189425Y303150D02*
X192575D01*
X189425Y296850D02*
Y303150D01*
Y296850D02*
X192575D01*
Y303150D01*
X231701Y314350D02*
X244299D01*
X231701D02*
Y320650D01*
X244299D01*
Y314350D02*
Y320650D01*
X290245Y289151D02*
Y301158D01*
X284143Y289151D02*
X290245D01*
X284143D02*
Y301158D01*
X290245D01*
X262650Y310201D02*
Y322799D01*
X256350Y310201D02*
X262650D01*
X256350D02*
Y322799D01*
X262650D01*
X176654Y308370D02*
X183346D01*
X176654Y304630D02*
X183346D01*
X176654D02*
Y308370D01*
X183346Y304630D02*
Y308370D01*
X297201Y297350D02*
X309799D01*
X297201D02*
Y303650D01*
X309799D01*
Y297350D02*
Y303650D01*
D11*
X254157Y434442D02*
G03*
X254157Y434442I-52658J0D01*
G01*
X101779Y324980D02*
X157291D01*
X101779Y267894D02*
Y324980D01*
Y267894D02*
X157291D01*
Y324980D01*
X138606Y455702D02*
X153287D01*
X138606Y413182D02*
X153236D01*
X138606D02*
Y455702D01*
X199492Y464391D02*
Y475887D01*
X188508D02*
X199492D01*
X188508Y464391D02*
Y475887D01*
Y464391D02*
X199492D01*
X226539Y465437D02*
X231461D01*
X226539D02*
Y473311D01*
X231461D01*
Y465437D02*
Y473311D01*
X213425Y467701D02*
Y474000D01*
Y467701D02*
X216575D01*
Y474000D01*
X213425D02*
X216575D01*
X142595Y341283D02*
Y376716D01*
X154405D01*
Y341283D02*
Y376716D01*
X142595Y341283D02*
X154405D01*
D114*
X236965Y311412D02*
X270035D01*
X233815Y314562D02*
Y347633D01*
X236965Y350782D02*
X270035D01*
X273185Y314562D02*
Y347633D01*
M02*
