G04*
G04 #@! TF.GenerationSoftware,Altium Limited,Altium Designer,22.6.1 (34)*
G04*
G04 Layer_Color=16711935*
%FSLAX25Y25*%
%MOIN*%
G70*
G04*
G04 #@! TF.SameCoordinates,DDC90878-0471-41C9-9F99-EECD3968BD0F*
G04*
G04*
G04 #@! TF.FilePolarity,Positive*
G04*
G01*
G75*
%ADD11C,0.00787*%
G36*
X232269Y352141D02*
X232293Y352139D01*
X232321Y352137D01*
X232353Y352130D01*
X232389Y352124D01*
X232428Y352115D01*
X232469Y352102D01*
X232512Y352087D01*
X232557Y352068D01*
X232604Y352046D01*
X232650Y352021D01*
X232695Y351988D01*
X232738Y351954D01*
X232781Y351913D01*
X232783Y351911D01*
X232789Y351902D01*
X232800Y351889D01*
X232815Y351872D01*
X232832Y351849D01*
X232850Y351821D01*
X232869Y351791D01*
X232890Y351754D01*
X232910Y351713D01*
X232931Y351668D01*
X232948Y351619D01*
X232966Y351565D01*
X232981Y351509D01*
X232991Y351447D01*
X232998Y351382D01*
X233000Y351315D01*
Y351298D01*
X232998Y351279D01*
X232996Y351253D01*
X232994Y351223D01*
X232989Y351186D01*
X232981Y351146D01*
X232972Y351100D01*
X232961Y351055D01*
X232946Y351006D01*
X232929Y350956D01*
X232908Y350905D01*
X232882Y350855D01*
X232854Y350806D01*
X232820Y350761D01*
X232781Y350716D01*
X232779Y350713D01*
X232770Y350705D01*
X232757Y350694D01*
X232740Y350679D01*
X232718Y350662D01*
X232693Y350642D01*
X232663Y350623D01*
X232628Y350602D01*
X232592Y350580D01*
X232548Y350561D01*
X232503Y350541D01*
X232456Y350524D01*
X232402Y350509D01*
X232349Y350498D01*
X232291Y350490D01*
X232230Y350488D01*
X232228D01*
X232220D01*
X232207D01*
X232189Y350490D01*
X232168Y350492D01*
X232144Y350494D01*
X232116Y350498D01*
X232086Y350503D01*
X232022Y350518D01*
X231987Y350529D01*
X231953Y350541D01*
X231919Y350554D01*
X231884Y350571D01*
X231852Y350591D01*
X231820Y350612D01*
X231818Y350615D01*
X231813Y350619D01*
X231805Y350625D01*
X231792Y350636D01*
X231779Y350649D01*
X231764Y350664D01*
X231747Y350683D01*
X231729Y350703D01*
X231710Y350726D01*
X231691Y350754D01*
X231674Y350782D01*
X231654Y350815D01*
X231637Y350849D01*
X231622Y350885D01*
X231607Y350926D01*
X231594Y350967D01*
Y350965D01*
X231590Y350958D01*
X231588Y350948D01*
X231581Y350935D01*
X231575Y350920D01*
X231566Y350901D01*
X231542Y350860D01*
X231514Y350812D01*
X231480Y350765D01*
X231439Y350720D01*
X231418Y350700D01*
X231394Y350681D01*
X231392D01*
X231388Y350677D01*
X231381Y350673D01*
X231370Y350666D01*
X231358Y350660D01*
X231342Y350651D01*
X231325Y350645D01*
X231306Y350636D01*
X231261Y350619D01*
X231207Y350604D01*
X231147Y350593D01*
X231115Y350591D01*
X231082Y350589D01*
X231080D01*
X231069D01*
X231056Y350591D01*
X231037D01*
X231013Y350595D01*
X230985Y350600D01*
X230955Y350606D01*
X230921Y350612D01*
X230887Y350623D01*
X230848Y350636D01*
X230809Y350653D01*
X230770Y350670D01*
X230732Y350694D01*
X230693Y350720D01*
X230657Y350750D01*
X230620Y350784D01*
X230618Y350786D01*
X230611Y350793D01*
X230603Y350806D01*
X230590Y350821D01*
X230577Y350840D01*
X230560Y350864D01*
X230545Y350892D01*
X230525Y350924D01*
X230508Y350961D01*
X230491Y350999D01*
X230476Y351042D01*
X230463Y351090D01*
X230450Y351139D01*
X230442Y351193D01*
X230435Y351249D01*
X230433Y351309D01*
Y351324D01*
X230435Y351341D01*
Y351363D01*
X230439Y351391D01*
X230444Y351423D01*
X230448Y351460D01*
X230457Y351498D01*
X230467Y351539D01*
X230480Y351582D01*
X230495Y351627D01*
X230515Y351670D01*
X230536Y351715D01*
X230562Y351758D01*
X230590Y351799D01*
X230624Y351838D01*
X230627Y351840D01*
X230633Y351847D01*
X230644Y351857D01*
X230659Y351870D01*
X230678Y351885D01*
X230699Y351902D01*
X230725Y351920D01*
X230753Y351939D01*
X230788Y351958D01*
X230822Y351975D01*
X230861Y351993D01*
X230902Y352008D01*
X230945Y352021D01*
X230992Y352031D01*
X231039Y352038D01*
X231091Y352040D01*
X231093D01*
X231099D01*
X231108D01*
X231121Y352038D01*
X231136D01*
X231153Y352036D01*
X231173Y352031D01*
X231194Y352029D01*
X231241Y352018D01*
X231293Y352001D01*
X231345Y351978D01*
X231370Y351965D01*
X231396Y351947D01*
X231398D01*
X231403Y351943D01*
X231409Y351937D01*
X231418Y351930D01*
X231428Y351920D01*
X231441Y351909D01*
X231454Y351894D01*
X231469Y351879D01*
X231484Y351859D01*
X231502Y351838D01*
X231517Y351816D01*
X231534Y351791D01*
X231551Y351763D01*
X231566Y351735D01*
X231581Y351702D01*
X231594Y351668D01*
Y351670D01*
X231598Y351679D01*
X231603Y351690D01*
X231609Y351707D01*
X231618Y351726D01*
X231626Y351748D01*
X231639Y351773D01*
X231654Y351799D01*
X231688Y351857D01*
X231729Y351915D01*
X231781Y351971D01*
X231809Y351997D01*
X231839Y352021D01*
X231841Y352023D01*
X231848Y352025D01*
X231856Y352031D01*
X231869Y352040D01*
X231884Y352049D01*
X231904Y352059D01*
X231927Y352070D01*
X231951Y352083D01*
X231979Y352094D01*
X232011Y352104D01*
X232043Y352115D01*
X232078Y352124D01*
X232116Y352132D01*
X232155Y352139D01*
X232196Y352141D01*
X232239Y352143D01*
X232243D01*
X232254D01*
X232269Y352141D01*
D02*
G37*
G36*
X232166Y350204D02*
X232172D01*
X232179Y350202D01*
X232200Y350195D01*
X232228Y350184D01*
X232263Y350174D01*
X232301Y350159D01*
X232347Y350139D01*
X232392Y350120D01*
X232441Y350094D01*
X232493Y350068D01*
X232544Y350036D01*
X232596Y350002D01*
X232647Y349963D01*
X232697Y349922D01*
X232742Y349877D01*
X232785Y349828D01*
X232787Y349826D01*
X232794Y349815D01*
X232804Y349800D01*
X232820Y349780D01*
X232835Y349752D01*
X232854Y349722D01*
X232873Y349686D01*
X232892Y349643D01*
X232912Y349598D01*
X232931Y349546D01*
X232951Y349492D01*
X232966Y349434D01*
X232981Y349372D01*
X232991Y349307D01*
X232998Y349236D01*
X233000Y349165D01*
Y349148D01*
X232998Y349127D01*
Y349099D01*
X232996Y349064D01*
X232991Y349024D01*
X232987Y348978D01*
X232979Y348931D01*
X232970Y348880D01*
X232959Y348826D01*
X232946Y348770D01*
X232931Y348714D01*
X232912Y348660D01*
X232890Y348604D01*
X232865Y348553D01*
X232837Y348503D01*
X232835Y348501D01*
X232828Y348493D01*
X232820Y348480D01*
X232807Y348462D01*
X232789Y348441D01*
X232768Y348415D01*
X232742Y348389D01*
X232714Y348359D01*
X232682Y348329D01*
X232647Y348297D01*
X232607Y348265D01*
X232564Y348232D01*
X232518Y348202D01*
X232467Y348172D01*
X232415Y348142D01*
X232357Y348116D01*
X232353Y348114D01*
X232342Y348110D01*
X232325Y348103D01*
X232304Y348097D01*
X232273Y348086D01*
X232239Y348075D01*
X232200Y348062D01*
X232155Y348052D01*
X232106Y348039D01*
X232054Y348026D01*
X231998Y348015D01*
X231940Y348007D01*
X231878Y347998D01*
X231815Y347991D01*
X231749Y347987D01*
X231682Y347985D01*
X231680D01*
X231678D01*
X231665D01*
X231643D01*
X231615Y347987D01*
X231583Y347989D01*
X231542Y347994D01*
X231499Y347998D01*
X231450Y348004D01*
X231398Y348011D01*
X231342Y348022D01*
X231287Y348032D01*
X231228Y348047D01*
X231170Y348065D01*
X231112Y348084D01*
X231054Y348108D01*
X230998Y348133D01*
X230994Y348136D01*
X230985Y348140D01*
X230970Y348148D01*
X230951Y348161D01*
X230925Y348176D01*
X230897Y348196D01*
X230867Y348217D01*
X230833Y348243D01*
X230799Y348271D01*
X230762Y348303D01*
X230723Y348338D01*
X230687Y348376D01*
X230650Y348417D01*
X230616Y348462D01*
X230583Y348510D01*
X230553Y348559D01*
X230551Y348563D01*
X230547Y348572D01*
X230538Y348587D01*
X230530Y348609D01*
X230519Y348634D01*
X230506Y348664D01*
X230491Y348699D01*
X230476Y348740D01*
X230463Y348783D01*
X230448Y348830D01*
X230435Y348880D01*
X230424Y348933D01*
X230416Y348989D01*
X230407Y349047D01*
X230403Y349107D01*
X230401Y349170D01*
Y349187D01*
X230403Y349206D01*
Y349232D01*
X230407Y349264D01*
X230412Y349303D01*
X230418Y349344D01*
X230424Y349389D01*
X230435Y349439D01*
X230448Y349490D01*
X230463Y349542D01*
X230482Y349595D01*
X230504Y349649D01*
X230530Y349701D01*
X230560Y349752D01*
X230594Y349802D01*
X230596Y349804D01*
X230603Y349813D01*
X230613Y349826D01*
X230629Y349845D01*
X230650Y349864D01*
X230674Y349890D01*
X230702Y349916D01*
X230734Y349944D01*
X230770Y349974D01*
X230809Y350004D01*
X230854Y350034D01*
X230902Y350064D01*
X230955Y350092D01*
X231011Y350118D01*
X231069Y350142D01*
X231134Y350163D01*
X231211Y349836D01*
X231209D01*
X231198Y349832D01*
X231185Y349828D01*
X231166Y349819D01*
X231145Y349810D01*
X231117Y349800D01*
X231089Y349787D01*
X231059Y349772D01*
X230992Y349735D01*
X230925Y349692D01*
X230895Y349666D01*
X230865Y349641D01*
X230837Y349610D01*
X230811Y349580D01*
X230809Y349578D01*
X230805Y349572D01*
X230801Y349563D01*
X230792Y349550D01*
X230781Y349535D01*
X230770Y349514D01*
X230760Y349492D01*
X230747Y349466D01*
X230736Y349439D01*
X230725Y349406D01*
X230715Y349372D01*
X230704Y349335D01*
X230695Y349294D01*
X230691Y349254D01*
X230687Y349208D01*
X230684Y349163D01*
Y349135D01*
X230687Y349116D01*
X230689Y349090D01*
X230691Y349062D01*
X230695Y349030D01*
X230702Y348993D01*
X230710Y348957D01*
X230719Y348918D01*
X230730Y348877D01*
X230743Y348836D01*
X230760Y348796D01*
X230779Y348755D01*
X230801Y348716D01*
X230824Y348677D01*
X230826Y348675D01*
X230831Y348669D01*
X230839Y348658D01*
X230850Y348645D01*
X230863Y348630D01*
X230880Y348613D01*
X230902Y348591D01*
X230923Y348570D01*
X230949Y348548D01*
X230977Y348525D01*
X231007Y348503D01*
X231041Y348480D01*
X231076Y348458D01*
X231115Y348439D01*
X231155Y348422D01*
X231198Y348404D01*
X231201D01*
X231209Y348400D01*
X231222Y348398D01*
X231239Y348391D01*
X231261Y348387D01*
X231287Y348381D01*
X231314Y348372D01*
X231347Y348366D01*
X231381Y348359D01*
X231420Y348351D01*
X231458Y348344D01*
X231499Y348340D01*
X231588Y348331D01*
X231680Y348327D01*
X231684D01*
X231695D01*
X231712D01*
X231734Y348329D01*
X231762D01*
X231794Y348331D01*
X231831Y348336D01*
X231871Y348338D01*
X231914Y348344D01*
X231960Y348351D01*
X232052Y348366D01*
X232149Y348389D01*
X232196Y348402D01*
X232241Y348419D01*
X232243Y348422D01*
X232252Y348424D01*
X232265Y348430D01*
X232280Y348437D01*
X232299Y348447D01*
X232323Y348458D01*
X232349Y348473D01*
X232374Y348490D01*
X232404Y348510D01*
X232433Y348531D01*
X232463Y348555D01*
X232493Y348581D01*
X232521Y348609D01*
X232548Y348641D01*
X232574Y348673D01*
X232598Y348710D01*
X232600Y348712D01*
X232602Y348718D01*
X232609Y348729D01*
X232617Y348744D01*
X232626Y348763D01*
X232634Y348785D01*
X232645Y348809D01*
X232656Y348836D01*
X232669Y348869D01*
X232680Y348901D01*
X232688Y348935D01*
X232697Y348974D01*
X232712Y349054D01*
X232714Y349095D01*
X232716Y349137D01*
Y349150D01*
X232714Y349165D01*
Y349185D01*
X232712Y349208D01*
X232708Y349236D01*
X232703Y349267D01*
X232697Y349301D01*
X232688Y349337D01*
X232678Y349374D01*
X232665Y349413D01*
X232647Y349453D01*
X232630Y349492D01*
X232609Y349533D01*
X232583Y349572D01*
X232555Y349608D01*
X232553Y349610D01*
X232546Y349617D01*
X232538Y349628D01*
X232525Y349641D01*
X232508Y349656D01*
X232486Y349675D01*
X232463Y349694D01*
X232435Y349716D01*
X232402Y349737D01*
X232368Y349759D01*
X232329Y349780D01*
X232286Y349802D01*
X232239Y349823D01*
X232189Y349843D01*
X232136Y349858D01*
X232078Y349873D01*
X232161Y350206D01*
X232164D01*
X232166Y350204D01*
D02*
G37*
G36*
X275504Y323629D02*
X273539D01*
X273541Y323627D01*
X273544Y323625D01*
X273550Y323618D01*
X273556Y323609D01*
X273567Y323597D01*
X273578Y323584D01*
X273591Y323569D01*
X273606Y323552D01*
X273638Y323509D01*
X273673Y323459D01*
X273711Y323401D01*
X273752Y323337D01*
X273754Y323334D01*
X273756Y323328D01*
X273763Y323319D01*
X273769Y323306D01*
X273778Y323291D01*
X273789Y323272D01*
X273799Y323251D01*
X273812Y323229D01*
X273838Y323177D01*
X273864Y323124D01*
X273890Y323068D01*
X273911Y323014D01*
X273612D01*
X273610Y323016D01*
X273606Y323025D01*
X273599Y323040D01*
X273591Y323057D01*
X273578Y323081D01*
X273565Y323106D01*
X273548Y323134D01*
X273528Y323167D01*
X273509Y323201D01*
X273485Y323238D01*
X273436Y323313D01*
X273380Y323388D01*
X273318Y323463D01*
X273316Y323465D01*
X273309Y323472D01*
X273301Y323483D01*
X273288Y323496D01*
X273273Y323511D01*
X273253Y323530D01*
X273234Y323549D01*
X273210Y323571D01*
X273159Y323616D01*
X273103Y323661D01*
X273042Y323704D01*
X273010Y323721D01*
X272980Y323739D01*
Y323938D01*
X275504D01*
Y323629D01*
D02*
G37*
G36*
X274713Y322489D02*
X274720D01*
X274726Y322487D01*
X274747Y322481D01*
X274775Y322470D01*
X274810Y322459D01*
X274849Y322444D01*
X274894Y322425D01*
X274939Y322406D01*
X274988Y322380D01*
X275040Y322354D01*
X275092Y322322D01*
X275143Y322287D01*
X275195Y322249D01*
X275244Y322208D01*
X275289Y322163D01*
X275332Y322113D01*
X275334Y322111D01*
X275341Y322100D01*
X275352Y322085D01*
X275367Y322066D01*
X275382Y322038D01*
X275401Y322008D01*
X275420Y321971D01*
X275440Y321928D01*
X275459Y321883D01*
X275479Y321831D01*
X275498Y321778D01*
X275513Y321720D01*
X275528Y321657D01*
X275539Y321593D01*
X275545Y321522D01*
X275547Y321451D01*
Y321434D01*
X275545Y321412D01*
Y321384D01*
X275543Y321350D01*
X275539Y321309D01*
X275534Y321264D01*
X275526Y321217D01*
X275517Y321165D01*
X275506Y321111D01*
X275494Y321055D01*
X275479Y320999D01*
X275459Y320946D01*
X275438Y320890D01*
X275412Y320838D01*
X275384Y320789D01*
X275382Y320787D01*
X275375Y320778D01*
X275367Y320765D01*
X275354Y320748D01*
X275337Y320726D01*
X275315Y320701D01*
X275289Y320675D01*
X275261Y320645D01*
X275229Y320615D01*
X275195Y320582D01*
X275154Y320550D01*
X275111Y320518D01*
X275066Y320488D01*
X275014Y320458D01*
X274962Y320428D01*
X274904Y320402D01*
X274900Y320400D01*
X274889Y320395D01*
X274872Y320389D01*
X274851Y320382D01*
X274821Y320372D01*
X274786Y320361D01*
X274747Y320348D01*
X274702Y320337D01*
X274653Y320324D01*
X274601Y320311D01*
X274545Y320301D01*
X274487Y320292D01*
X274425Y320284D01*
X274363Y320277D01*
X274296Y320273D01*
X274229Y320271D01*
X274227D01*
X274225D01*
X274212D01*
X274191D01*
X274163Y320273D01*
X274130Y320275D01*
X274090Y320279D01*
X274047Y320284D01*
X273997Y320290D01*
X273945Y320296D01*
X273890Y320307D01*
X273834Y320318D01*
X273776Y320333D01*
X273718Y320350D01*
X273660Y320370D01*
X273602Y320393D01*
X273546Y320419D01*
X273541Y320421D01*
X273533Y320425D01*
X273518Y320434D01*
X273498Y320447D01*
X273472Y320462D01*
X273445Y320481D01*
X273414Y320503D01*
X273380Y320529D01*
X273346Y320557D01*
X273309Y320589D01*
X273270Y320623D01*
X273234Y320662D01*
X273197Y320703D01*
X273163Y320748D01*
X273131Y320795D01*
X273101Y320845D01*
X273098Y320849D01*
X273094Y320858D01*
X273085Y320873D01*
X273077Y320894D01*
X273066Y320920D01*
X273053Y320950D01*
X273038Y320984D01*
X273023Y321025D01*
X273010Y321068D01*
X272995Y321115D01*
X272982Y321165D01*
X272972Y321219D01*
X272963Y321275D01*
X272954Y321333D01*
X272950Y321393D01*
X272948Y321455D01*
Y321472D01*
X272950Y321492D01*
Y321518D01*
X272954Y321550D01*
X272959Y321588D01*
X272965Y321629D01*
X272972Y321674D01*
X272982Y321724D01*
X272995Y321776D01*
X273010Y321827D01*
X273030Y321881D01*
X273051Y321935D01*
X273077Y321986D01*
X273107Y322038D01*
X273141Y322087D01*
X273144Y322090D01*
X273150Y322098D01*
X273161Y322111D01*
X273176Y322130D01*
X273197Y322150D01*
X273221Y322176D01*
X273249Y322201D01*
X273281Y322229D01*
X273318Y322259D01*
X273356Y322289D01*
X273402Y322320D01*
X273449Y322350D01*
X273503Y322378D01*
X273558Y322403D01*
X273617Y322427D01*
X273681Y322448D01*
X273759Y322122D01*
X273756D01*
X273746Y322117D01*
X273733Y322113D01*
X273713Y322105D01*
X273692Y322096D01*
X273664Y322085D01*
X273636Y322072D01*
X273606Y322057D01*
X273539Y322021D01*
X273472Y321978D01*
X273442Y321952D01*
X273412Y321926D01*
X273384Y321896D01*
X273359Y321866D01*
X273356Y321864D01*
X273352Y321857D01*
X273348Y321849D01*
X273339Y321836D01*
X273328Y321821D01*
X273318Y321799D01*
X273307Y321778D01*
X273294Y321752D01*
X273283Y321724D01*
X273273Y321692D01*
X273262Y321657D01*
X273251Y321621D01*
X273242Y321580D01*
X273238Y321539D01*
X273234Y321494D01*
X273232Y321449D01*
Y321421D01*
X273234Y321402D01*
X273236Y321376D01*
X273238Y321348D01*
X273242Y321316D01*
X273249Y321279D01*
X273257Y321242D01*
X273266Y321204D01*
X273277Y321163D01*
X273290Y321122D01*
X273307Y321081D01*
X273326Y321040D01*
X273348Y321002D01*
X273372Y320963D01*
X273374Y320961D01*
X273378Y320954D01*
X273387Y320944D01*
X273397Y320931D01*
X273410Y320916D01*
X273427Y320898D01*
X273449Y320877D01*
X273470Y320855D01*
X273496Y320834D01*
X273524Y320810D01*
X273554Y320789D01*
X273589Y320765D01*
X273623Y320744D01*
X273662Y320724D01*
X273703Y320707D01*
X273746Y320690D01*
X273748D01*
X273756Y320686D01*
X273769Y320683D01*
X273786Y320677D01*
X273808Y320673D01*
X273834Y320666D01*
X273862Y320658D01*
X273894Y320651D01*
X273928Y320645D01*
X273967Y320636D01*
X274006Y320630D01*
X274047Y320625D01*
X274135Y320617D01*
X274227Y320612D01*
X274232D01*
X274242D01*
X274259D01*
X274281Y320615D01*
X274309D01*
X274341Y320617D01*
X274378Y320621D01*
X274418Y320623D01*
X274462Y320630D01*
X274507Y320636D01*
X274599Y320651D01*
X274696Y320675D01*
X274743Y320688D01*
X274788Y320705D01*
X274791Y320707D01*
X274799Y320709D01*
X274812Y320716D01*
X274827Y320722D01*
X274846Y320733D01*
X274870Y320744D01*
X274896Y320759D01*
X274922Y320776D01*
X274952Y320795D01*
X274980Y320817D01*
X275010Y320840D01*
X275040Y320866D01*
X275068Y320894D01*
X275096Y320926D01*
X275122Y320959D01*
X275145Y320995D01*
X275147Y320997D01*
X275149Y321004D01*
X275156Y321014D01*
X275165Y321030D01*
X275173Y321049D01*
X275182Y321070D01*
X275192Y321094D01*
X275203Y321122D01*
X275216Y321154D01*
X275227Y321186D01*
X275236Y321221D01*
X275244Y321260D01*
X275259Y321339D01*
X275261Y321380D01*
X275264Y321423D01*
Y321436D01*
X275261Y321451D01*
Y321470D01*
X275259Y321494D01*
X275255Y321522D01*
X275251Y321552D01*
X275244Y321586D01*
X275236Y321623D01*
X275225Y321659D01*
X275212Y321698D01*
X275195Y321739D01*
X275178Y321778D01*
X275156Y321819D01*
X275130Y321857D01*
X275102Y321894D01*
X275100Y321896D01*
X275094Y321902D01*
X275085Y321913D01*
X275072Y321926D01*
X275055Y321941D01*
X275033Y321960D01*
X275010Y321980D01*
X274982Y322001D01*
X274950Y322023D01*
X274915Y322044D01*
X274876Y322066D01*
X274833Y322087D01*
X274786Y322109D01*
X274737Y322128D01*
X274683Y322143D01*
X274625Y322158D01*
X274709Y322492D01*
X274711D01*
X274713Y322489D01*
D02*
G37*
%LPC*%
G36*
X231089Y351722D02*
X231086D01*
X231080D01*
X231071D01*
X231061Y351720D01*
X231046Y351717D01*
X231029Y351715D01*
X230990Y351707D01*
X230945Y351694D01*
X230897Y351672D01*
X230872Y351659D01*
X230848Y351642D01*
X230824Y351625D01*
X230803Y351604D01*
X230801Y351601D01*
X230799Y351599D01*
X230792Y351593D01*
X230786Y351582D01*
X230775Y351571D01*
X230766Y351558D01*
X230755Y351541D01*
X230745Y351524D01*
X230723Y351481D01*
X230704Y351431D01*
X230691Y351376D01*
X230689Y351345D01*
X230687Y351313D01*
Y351296D01*
X230689Y351283D01*
X230691Y351268D01*
X230693Y351251D01*
X230702Y351210D01*
X230715Y351165D01*
X230734Y351115D01*
X230747Y351092D01*
X230762Y351066D01*
X230781Y351042D01*
X230801Y351021D01*
X230803Y351019D01*
X230805Y351017D01*
X230811Y351010D01*
X230820Y351004D01*
X230831Y350995D01*
X230846Y350984D01*
X230878Y350965D01*
X230917Y350943D01*
X230962Y350924D01*
X231016Y350911D01*
X231044Y350909D01*
X231071Y350907D01*
X231074D01*
X231080D01*
X231089D01*
X231102Y350909D01*
X231117Y350911D01*
X231134Y350913D01*
X231175Y350922D01*
X231222Y350935D01*
X231269Y350954D01*
X231295Y350967D01*
X231319Y350982D01*
X231342Y350999D01*
X231364Y351019D01*
X231366Y351021D01*
X231368Y351023D01*
X231375Y351029D01*
X231381Y351040D01*
X231390Y351051D01*
X231398Y351064D01*
X231409Y351081D01*
X231420Y351098D01*
X231431Y351120D01*
X231441Y351141D01*
X231458Y351193D01*
X231471Y351251D01*
X231473Y351283D01*
X231476Y351318D01*
Y351335D01*
X231473Y351348D01*
X231471Y351363D01*
X231469Y351380D01*
X231461Y351421D01*
X231448Y351466D01*
X231428Y351515D01*
X231416Y351539D01*
X231400Y351563D01*
X231383Y351586D01*
X231364Y351608D01*
X231362Y351610D01*
X231360Y351612D01*
X231353Y351619D01*
X231345Y351625D01*
X231334Y351634D01*
X231321Y351644D01*
X231287Y351666D01*
X231248Y351685D01*
X231201Y351705D01*
X231147Y351717D01*
X231119Y351720D01*
X231089Y351722D01*
D02*
G37*
G36*
X232243Y351825D02*
X232241D01*
X232232D01*
X232222D01*
X232207Y351823D01*
X232187Y351821D01*
X232164Y351816D01*
X232140Y351812D01*
X232112Y351806D01*
X232084Y351799D01*
X232054Y351788D01*
X232024Y351778D01*
X231994Y351763D01*
X231962Y351745D01*
X231931Y351726D01*
X231901Y351702D01*
X231873Y351677D01*
X231871Y351675D01*
X231867Y351670D01*
X231861Y351662D01*
X231850Y351651D01*
X231839Y351636D01*
X231826Y351619D01*
X231813Y351599D01*
X231800Y351576D01*
X231787Y351550D01*
X231772Y351522D01*
X231762Y351492D01*
X231751Y351460D01*
X231740Y351425D01*
X231734Y351386D01*
X231729Y351348D01*
X231727Y351307D01*
Y351285D01*
X231729Y351270D01*
X231732Y351253D01*
X231736Y351232D01*
X231740Y351206D01*
X231745Y351180D01*
X231764Y351124D01*
X231774Y351094D01*
X231790Y351064D01*
X231805Y351034D01*
X231826Y351004D01*
X231848Y350976D01*
X231873Y350948D01*
X231876Y350946D01*
X231880Y350941D01*
X231889Y350935D01*
X231899Y350926D01*
X231914Y350916D01*
X231929Y350903D01*
X231951Y350890D01*
X231972Y350877D01*
X231998Y350864D01*
X232024Y350851D01*
X232054Y350838D01*
X232086Y350827D01*
X232119Y350819D01*
X232155Y350812D01*
X232194Y350808D01*
X232232Y350806D01*
X232235D01*
X232239D01*
X232245D01*
X232256D01*
X232267Y350808D01*
X232282Y350810D01*
X232314Y350815D01*
X232353Y350821D01*
X232396Y350832D01*
X232441Y350847D01*
X232488Y350866D01*
X232490D01*
X232493Y350868D01*
X232499Y350872D01*
X232508Y350877D01*
X232531Y350892D01*
X232557Y350913D01*
X232589Y350939D01*
X232622Y350971D01*
X232652Y351008D01*
X232680Y351051D01*
Y351053D01*
X232682Y351057D01*
X232686Y351064D01*
X232691Y351073D01*
X232695Y351083D01*
X232701Y351098D01*
X232712Y351131D01*
X232725Y351171D01*
X232736Y351217D01*
X232744Y351266D01*
X232746Y351318D01*
Y351339D01*
X232744Y351354D01*
X232742Y351374D01*
X232738Y351395D01*
X232733Y351419D01*
X232729Y351447D01*
X232712Y351505D01*
X232701Y351535D01*
X232686Y351565D01*
X232671Y351595D01*
X232652Y351625D01*
X232630Y351653D01*
X232604Y351681D01*
X232602Y351683D01*
X232598Y351687D01*
X232589Y351694D01*
X232579Y351705D01*
X232566Y351715D01*
X232548Y351726D01*
X232529Y351739D01*
X232505Y351754D01*
X232482Y351767D01*
X232454Y351780D01*
X232424Y351791D01*
X232392Y351803D01*
X232357Y351812D01*
X232321Y351818D01*
X232284Y351823D01*
X232243Y351825D01*
D02*
G37*
%LPD*%
D11*
X228460Y338918D02*
X237540D01*
Y357052D01*
X228460D02*
X237540D01*
X228460Y338918D02*
Y357052D01*
X271007Y311203D02*
X280087D01*
Y329338D01*
X271007D02*
X280087D01*
X271007Y311203D02*
Y329338D01*
M02*
