G04*
G04 #@! TF.GenerationSoftware,Altium Limited,Altium Designer,22.6.1 (34)*
G04*
G04 Layer_Color=32896*
%FSLAX25Y25*%
%MOIN*%
G70*
G04*
G04 #@! TF.SameCoordinates,DDC90878-0471-41C9-9F99-EECD3968BD0F*
G04*
G04*
G04 #@! TF.FilePolarity,Positive*
G04*
G01*
G75*
%ADD10C,0.00394*%
%ADD11C,0.00787*%
G36*
X217751Y446498D02*
X217822Y446491D01*
X217887Y446481D01*
X217949Y446466D01*
X218007Y446451D01*
X218061Y446431D01*
X218112Y446412D01*
X218158Y446393D01*
X218201Y446373D01*
X218237Y446354D01*
X218267Y446335D01*
X218295Y446319D01*
X218315Y446304D01*
X218330Y446294D01*
X218340Y446287D01*
X218342Y446285D01*
X218392Y446242D01*
X218437Y446197D01*
X218478Y446147D01*
X218517Y446096D01*
X218551Y446044D01*
X218583Y445993D01*
X218609Y445941D01*
X218635Y445892D01*
X218654Y445847D01*
X218674Y445801D01*
X218689Y445763D01*
X218699Y445728D01*
X218710Y445700D01*
X218717Y445679D01*
X218719Y445672D01*
Y445666D01*
X218721Y445664D01*
Y445661D01*
X218388Y445578D01*
X218373Y445636D01*
X218357Y445689D01*
X218338Y445739D01*
X218317Y445786D01*
X218295Y445829D01*
X218274Y445868D01*
X218252Y445902D01*
X218231Y445935D01*
X218209Y445963D01*
X218190Y445986D01*
X218170Y446008D01*
X218155Y446025D01*
X218143Y446038D01*
X218132Y446046D01*
X218125Y446053D01*
X218123Y446055D01*
X218087Y446083D01*
X218048Y446109D01*
X218007Y446130D01*
X217968Y446147D01*
X217928Y446165D01*
X217889Y446177D01*
X217852Y446188D01*
X217816Y446197D01*
X217781Y446203D01*
X217751Y446208D01*
X217723Y446212D01*
X217700Y446214D01*
X217680D01*
X217665Y446216D01*
X217652D01*
X217609Y446214D01*
X217568Y446212D01*
X217489Y446197D01*
X217450Y446188D01*
X217416Y446180D01*
X217384Y446169D01*
X217351Y446156D01*
X217323Y446145D01*
X217300Y446135D01*
X217278Y446126D01*
X217259Y446117D01*
X217244Y446109D01*
X217233Y446102D01*
X217227Y446100D01*
X217225Y446098D01*
X217188Y446074D01*
X217156Y446048D01*
X217123Y446021D01*
X217095Y445993D01*
X217070Y445963D01*
X217046Y445932D01*
X217024Y445904D01*
X217005Y445874D01*
X216988Y445849D01*
X216973Y445823D01*
X216962Y445799D01*
X216951Y445780D01*
X216945Y445765D01*
X216938Y445752D01*
X216936Y445743D01*
X216934Y445741D01*
X216917Y445696D01*
X216904Y445649D01*
X216880Y445552D01*
X216865Y445460D01*
X216859Y445414D01*
X216852Y445371D01*
X216850Y445330D01*
X216846Y445294D01*
X216844Y445262D01*
Y445234D01*
X216842Y445212D01*
Y445195D01*
Y445184D01*
Y445180D01*
X216846Y445087D01*
X216855Y444999D01*
X216859Y444958D01*
X216865Y444920D01*
X216874Y444881D01*
X216880Y444847D01*
X216887Y444814D01*
X216896Y444787D01*
X216902Y444761D01*
X216906Y444739D01*
X216913Y444722D01*
X216915Y444709D01*
X216919Y444700D01*
Y444698D01*
X216936Y444655D01*
X216954Y444615D01*
X216973Y444576D01*
X216994Y444541D01*
X217018Y444507D01*
X217040Y444477D01*
X217063Y444449D01*
X217085Y444423D01*
X217106Y444402D01*
X217128Y444380D01*
X217145Y444363D01*
X217160Y444350D01*
X217173Y444339D01*
X217184Y444331D01*
X217190Y444326D01*
X217192Y444324D01*
X217231Y444301D01*
X217270Y444279D01*
X217311Y444260D01*
X217351Y444243D01*
X217392Y444230D01*
X217433Y444219D01*
X217472Y444210D01*
X217508Y444202D01*
X217545Y444195D01*
X217577Y444191D01*
X217605Y444189D01*
X217631Y444187D01*
X217650Y444184D01*
X217678D01*
X217723Y444187D01*
X217768Y444191D01*
X217809Y444195D01*
X217850Y444204D01*
X217887Y444215D01*
X217921Y444225D01*
X217953Y444236D01*
X217981Y444247D01*
X218007Y444260D01*
X218029Y444271D01*
X218050Y444281D01*
X218065Y444292D01*
X218078Y444301D01*
X218087Y444305D01*
X218093Y444309D01*
X218095Y444311D01*
X218125Y444337D01*
X218155Y444365D01*
X218181Y444395D01*
X218207Y444425D01*
X218250Y444492D01*
X218287Y444559D01*
X218302Y444589D01*
X218315Y444617D01*
X218325Y444645D01*
X218334Y444666D01*
X218342Y444686D01*
X218347Y444698D01*
X218351Y444709D01*
Y444711D01*
X218678Y444634D01*
X218656Y444569D01*
X218633Y444511D01*
X218607Y444455D01*
X218579Y444402D01*
X218549Y444354D01*
X218519Y444309D01*
X218489Y444271D01*
X218459Y444234D01*
X218431Y444202D01*
X218405Y444174D01*
X218379Y444150D01*
X218360Y444129D01*
X218340Y444114D01*
X218327Y444103D01*
X218319Y444096D01*
X218317Y444094D01*
X218267Y444060D01*
X218216Y444030D01*
X218164Y444004D01*
X218110Y443982D01*
X218057Y443963D01*
X218005Y443948D01*
X217953Y443935D01*
X217904Y443924D01*
X217859Y443918D01*
X217818Y443911D01*
X217779Y443907D01*
X217747Y443903D01*
X217721D01*
X217702Y443901D01*
X217685D01*
X217622Y443903D01*
X217562Y443907D01*
X217504Y443916D01*
X217448Y443924D01*
X217394Y443935D01*
X217345Y443948D01*
X217298Y443963D01*
X217255Y443976D01*
X217214Y443991D01*
X217179Y444006D01*
X217149Y444019D01*
X217123Y444030D01*
X217102Y444038D01*
X217087Y444047D01*
X217078Y444051D01*
X217074Y444053D01*
X217024Y444083D01*
X216977Y444116D01*
X216932Y444150D01*
X216891Y444187D01*
X216852Y444223D01*
X216818Y444262D01*
X216786Y444298D01*
X216758Y444333D01*
X216732Y444367D01*
X216711Y444397D01*
X216691Y444425D01*
X216676Y444451D01*
X216663Y444470D01*
X216655Y444486D01*
X216650Y444494D01*
X216648Y444498D01*
X216622Y444554D01*
X216599Y444612D01*
X216580Y444670D01*
X216562Y444728D01*
X216547Y444787D01*
X216536Y444842D01*
X216526Y444898D01*
X216519Y444950D01*
X216513Y444999D01*
X216509Y445042D01*
X216504Y445083D01*
X216502Y445115D01*
X216500Y445143D01*
Y445165D01*
Y445178D01*
Y445180D01*
Y445182D01*
X216502Y445249D01*
X216506Y445315D01*
X216513Y445378D01*
X216521Y445440D01*
X216530Y445498D01*
X216541Y445554D01*
X216554Y445606D01*
X216567Y445655D01*
X216577Y445700D01*
X216590Y445739D01*
X216601Y445773D01*
X216612Y445803D01*
X216618Y445825D01*
X216625Y445842D01*
X216629Y445853D01*
X216631Y445857D01*
X216657Y445915D01*
X216687Y445967D01*
X216717Y446019D01*
X216747Y446064D01*
X216779Y446107D01*
X216812Y446147D01*
X216844Y446182D01*
X216874Y446214D01*
X216904Y446242D01*
X216930Y446268D01*
X216956Y446289D01*
X216977Y446307D01*
X216994Y446319D01*
X217007Y446328D01*
X217016Y446335D01*
X217018Y446337D01*
X217068Y446365D01*
X217119Y446390D01*
X217175Y446412D01*
X217229Y446431D01*
X217285Y446446D01*
X217341Y446459D01*
X217394Y446470D01*
X217446Y446479D01*
X217493Y446487D01*
X217538Y446491D01*
X217579Y446496D01*
X217614Y446498D01*
X217642D01*
X217663Y446500D01*
X217680D01*
X217751Y446498D01*
D02*
G37*
G36*
X221858D02*
X221899Y446496D01*
X221976Y446483D01*
X222010Y446474D01*
X222045Y446466D01*
X222075Y446457D01*
X222103Y446446D01*
X222129Y446435D01*
X222152Y446427D01*
X222174Y446418D01*
X222189Y446410D01*
X222204Y446403D01*
X222213Y446397D01*
X222219Y446395D01*
X222221Y446393D01*
X222253Y446371D01*
X222283Y446347D01*
X222341Y446298D01*
X222389Y446246D01*
X222430Y446197D01*
X222447Y446173D01*
X222460Y446152D01*
X222473Y446132D01*
X222483Y446115D01*
X222492Y446102D01*
X222498Y446092D01*
X222501Y446085D01*
X222503Y446083D01*
X222520Y446044D01*
X222537Y446006D01*
X222563Y445928D01*
X222580Y445853D01*
X222587Y445819D01*
X222593Y445786D01*
X222597Y445756D01*
X222602Y445728D01*
X222604Y445702D01*
Y445683D01*
X222606Y445666D01*
Y445653D01*
Y445644D01*
Y445642D01*
X222604Y445576D01*
X222597Y445513D01*
X222587Y445455D01*
X222571Y445399D01*
X222554Y445348D01*
X222537Y445298D01*
X222518Y445255D01*
X222496Y445214D01*
X222477Y445178D01*
X222455Y445146D01*
X222438Y445120D01*
X222421Y445096D01*
X222406Y445079D01*
X222395Y445066D01*
X222389Y445057D01*
X222387Y445055D01*
X222346Y445014D01*
X222303Y444980D01*
X222258Y444950D01*
X222213Y444924D01*
X222169Y444901D01*
X222124Y444883D01*
X222083Y444868D01*
X222043Y444855D01*
X222006Y444847D01*
X221972Y444840D01*
X221939Y444834D01*
X221914Y444832D01*
X221892Y444830D01*
X221875Y444827D01*
X221862D01*
X221797Y444832D01*
X221735Y444840D01*
X221677Y444853D01*
X221625Y444868D01*
X221604Y444877D01*
X221583Y444885D01*
X221565Y444892D01*
X221550Y444898D01*
X221539Y444903D01*
X221529Y444907D01*
X221525Y444911D01*
X221522D01*
X221464Y444946D01*
X221413Y444984D01*
X221365Y445027D01*
X221327Y445068D01*
X221294Y445105D01*
X221282Y445120D01*
X221271Y445135D01*
X221262Y445146D01*
X221256Y445154D01*
X221254Y445161D01*
X221251Y445163D01*
X221254Y445094D01*
X221256Y445029D01*
X221260Y444969D01*
X221267Y444913D01*
X221273Y444862D01*
X221279Y444814D01*
X221288Y444769D01*
X221294Y444731D01*
X221303Y444696D01*
X221312Y444666D01*
X221318Y444640D01*
X221324Y444621D01*
X221329Y444604D01*
X221333Y444591D01*
X221337Y444584D01*
Y444582D01*
X221355Y444546D01*
X221372Y444509D01*
X221389Y444477D01*
X221408Y444447D01*
X221428Y444419D01*
X221447Y444393D01*
X221466Y444369D01*
X221484Y444348D01*
X221501Y444331D01*
X221516Y444316D01*
X221531Y444301D01*
X221544Y444290D01*
X221552Y444281D01*
X221561Y444275D01*
X221565Y444273D01*
X221568Y444271D01*
X221610Y444243D01*
X221656Y444221D01*
X221699Y444206D01*
X221740Y444197D01*
X221774Y444191D01*
X221789Y444189D01*
X221802D01*
X221813Y444187D01*
X221828D01*
X221862Y444189D01*
X221894Y444193D01*
X221924Y444200D01*
X221952Y444208D01*
X222006Y444230D01*
X222049Y444253D01*
X222068Y444266D01*
X222086Y444277D01*
X222101Y444290D01*
X222114Y444298D01*
X222122Y444307D01*
X222129Y444313D01*
X222133Y444318D01*
X222135Y444320D01*
X222148Y444337D01*
X222161Y444354D01*
X222184Y444395D01*
X222206Y444438D01*
X222223Y444481D01*
X222236Y444520D01*
X222240Y444537D01*
X222245Y444552D01*
X222249Y444565D01*
X222251Y444574D01*
X222253Y444580D01*
Y444582D01*
X222561Y444559D01*
X222552Y444505D01*
X222539Y444455D01*
X222526Y444408D01*
X222509Y444363D01*
X222490Y444322D01*
X222473Y444285D01*
X222451Y444251D01*
X222432Y444219D01*
X222412Y444193D01*
X222395Y444169D01*
X222378Y444148D01*
X222363Y444131D01*
X222350Y444118D01*
X222341Y444109D01*
X222335Y444103D01*
X222333Y444101D01*
X222296Y444071D01*
X222258Y444045D01*
X222217Y444023D01*
X222176Y444004D01*
X222135Y443987D01*
X222096Y443974D01*
X222056Y443963D01*
X222019Y443954D01*
X221982Y443948D01*
X221950Y443942D01*
X221920Y443937D01*
X221894Y443935D01*
X221873Y443933D01*
X221845D01*
X221772Y443935D01*
X221703Y443946D01*
X221638Y443959D01*
X221578Y443978D01*
X221522Y444000D01*
X221471Y444023D01*
X221423Y444049D01*
X221380Y444077D01*
X221342Y444103D01*
X221307Y444131D01*
X221279Y444154D01*
X221256Y444176D01*
X221236Y444195D01*
X221223Y444208D01*
X221215Y444217D01*
X221213Y444221D01*
X221189Y444253D01*
X221165Y444288D01*
X221125Y444361D01*
X221088Y444443D01*
X221058Y444526D01*
X221032Y444615D01*
X221011Y444703D01*
X220991Y444789D01*
X220978Y444875D01*
X220966Y444956D01*
X220959Y445034D01*
X220955Y445068D01*
X220953Y445103D01*
X220950Y445133D01*
X220948Y445163D01*
X220946Y445189D01*
Y445212D01*
Y445231D01*
X220944Y445249D01*
Y445262D01*
Y445272D01*
Y445279D01*
Y445281D01*
Y445341D01*
X220946Y445399D01*
X220955Y445509D01*
X220966Y445610D01*
X220983Y445702D01*
X221000Y445786D01*
X221021Y445864D01*
X221043Y445932D01*
X221066Y445993D01*
X221088Y446046D01*
X221110Y446092D01*
X221131Y446130D01*
X221148Y446163D01*
X221165Y446186D01*
X221176Y446203D01*
X221185Y446212D01*
X221187Y446216D01*
X221234Y446266D01*
X221284Y446311D01*
X221335Y446347D01*
X221387Y446380D01*
X221441Y446408D01*
X221492Y446431D01*
X221544Y446448D01*
X221593Y446463D01*
X221638Y446476D01*
X221681Y446485D01*
X221720Y446491D01*
X221752Y446496D01*
X221780Y446498D01*
X221800Y446500D01*
X221817D01*
X221858Y446498D01*
D02*
G37*
G36*
X220168Y443933D02*
X219968D01*
X219951Y443963D01*
X219934Y443995D01*
X219890Y444056D01*
X219845Y444111D01*
X219800Y444163D01*
X219779Y444187D01*
X219759Y444206D01*
X219740Y444225D01*
X219725Y444240D01*
X219712Y444253D01*
X219701Y444262D01*
X219695Y444268D01*
X219693Y444271D01*
X219617Y444333D01*
X219542Y444389D01*
X219467Y444438D01*
X219430Y444462D01*
X219396Y444481D01*
X219364Y444501D01*
X219336Y444518D01*
X219310Y444531D01*
X219286Y444544D01*
X219269Y444552D01*
X219254Y444559D01*
X219246Y444563D01*
X219243Y444565D01*
Y444864D01*
X219297Y444842D01*
X219353Y444817D01*
X219407Y444791D01*
X219458Y444765D01*
X219480Y444752D01*
X219501Y444741D01*
X219521Y444731D01*
X219536Y444722D01*
X219549Y444715D01*
X219557Y444709D01*
X219564Y444707D01*
X219566Y444705D01*
X219630Y444664D01*
X219688Y444625D01*
X219738Y444591D01*
X219781Y444559D01*
X219798Y444544D01*
X219813Y444531D01*
X219826Y444520D01*
X219839Y444509D01*
X219847Y444503D01*
X219854Y444496D01*
X219856Y444494D01*
X219858Y444492D01*
Y446457D01*
X220168D01*
Y443933D01*
D02*
G37*
G36*
X298188Y448756D02*
X299815D01*
Y448504D01*
X298188Y447358D01*
X297904D01*
Y448446D01*
X297302D01*
Y448756D01*
X297904D01*
Y449095D01*
X298188D01*
Y448756D01*
D02*
G37*
G36*
X297599Y445894D02*
X297631Y445915D01*
X297661Y445937D01*
X297689Y445958D01*
X297712Y445980D01*
X297734Y445997D01*
X297749Y446012D01*
X297760Y446021D01*
X297764Y446025D01*
X297781Y446042D01*
X297803Y446064D01*
X297824Y446087D01*
X297848Y446115D01*
X297902Y446173D01*
X297953Y446234D01*
X297979Y446262D01*
X298003Y446289D01*
X298024Y446315D01*
X298044Y446337D01*
X298059Y446356D01*
X298069Y446369D01*
X298078Y446380D01*
X298080Y446382D01*
X298132Y446442D01*
X298179Y446498D01*
X298226Y446550D01*
X298267Y446595D01*
X298308Y446638D01*
X298345Y446676D01*
X298377Y446711D01*
X298407Y446743D01*
X298435Y446769D01*
X298456Y446793D01*
X298478Y446812D01*
X298493Y446827D01*
X298506Y446840D01*
X298517Y446848D01*
X298521Y446853D01*
X298523Y446855D01*
X298583Y446904D01*
X298639Y446947D01*
X298691Y446984D01*
X298738Y447012D01*
X298757Y447025D01*
X298777Y447033D01*
X298792Y447042D01*
X298805Y447048D01*
X298815Y447055D01*
X298824Y447059D01*
X298828Y447061D01*
X298831D01*
X298884Y447083D01*
X298938Y447098D01*
X298990Y447109D01*
X299035Y447115D01*
X299054Y447119D01*
X299071Y447122D01*
X299089D01*
X299101Y447124D01*
X299112D01*
X299121D01*
X299125D01*
X299127D01*
X299181Y447122D01*
X299235Y447115D01*
X299284Y447104D01*
X299329Y447091D01*
X299375Y447074D01*
X299415Y447057D01*
X299452Y447038D01*
X299486Y447018D01*
X299518Y446997D01*
X299544Y446978D01*
X299568Y446960D01*
X299587Y446945D01*
X299605Y446930D01*
X299615Y446919D01*
X299622Y446913D01*
X299624Y446911D01*
X299660Y446870D01*
X299691Y446825D01*
X299718Y446780D01*
X299740Y446732D01*
X299759Y446685D01*
X299777Y446638D01*
X299789Y446591D01*
X299800Y446545D01*
X299809Y446504D01*
X299815Y446464D01*
X299819Y446429D01*
X299824Y446399D01*
Y446373D01*
X299826Y446354D01*
Y446339D01*
X299824Y446274D01*
X299817Y446212D01*
X299809Y446152D01*
X299796Y446098D01*
X299783Y446047D01*
X299768Y445999D01*
X299751Y445956D01*
X299733Y445918D01*
X299714Y445883D01*
X299699Y445853D01*
X299682Y445827D01*
X299669Y445806D01*
X299656Y445789D01*
X299647Y445778D01*
X299641Y445769D01*
X299639Y445767D01*
X299602Y445730D01*
X299564Y445696D01*
X299521Y445666D01*
X299478Y445640D01*
X299432Y445617D01*
X299387Y445597D01*
X299342Y445580D01*
X299299Y445567D01*
X299258Y445554D01*
X299222Y445546D01*
X299187Y445539D01*
X299157Y445533D01*
X299134Y445528D01*
X299114Y445526D01*
X299104Y445524D01*
X299099D01*
X299067Y445842D01*
X299110Y445844D01*
X299151Y445849D01*
X299187Y445855D01*
X299224Y445864D01*
X299256Y445872D01*
X299286Y445885D01*
X299314Y445896D01*
X299338Y445909D01*
X299362Y445922D01*
X299381Y445933D01*
X299396Y445946D01*
X299411Y445954D01*
X299422Y445963D01*
X299428Y445969D01*
X299432Y445973D01*
X299435Y445976D01*
X299458Y446001D01*
X299480Y446029D01*
X299497Y446057D01*
X299512Y446087D01*
X299527Y446117D01*
X299538Y446148D01*
X299553Y446204D01*
X299559Y446232D01*
X299564Y446255D01*
X299566Y446277D01*
X299568Y446296D01*
X299570Y446311D01*
Y446333D01*
X299568Y446371D01*
X299564Y446408D01*
X299559Y446442D01*
X299551Y446474D01*
X299540Y446504D01*
X299529Y446532D01*
X299518Y446558D01*
X299508Y446582D01*
X299495Y446603D01*
X299484Y446623D01*
X299473Y446638D01*
X299463Y446651D01*
X299454Y446661D01*
X299450Y446668D01*
X299445Y446672D01*
X299443Y446674D01*
X299420Y446698D01*
X299394Y446717D01*
X299368Y446735D01*
X299342Y446750D01*
X299314Y446763D01*
X299291Y446773D01*
X299241Y446788D01*
X299220Y446795D01*
X299198Y446799D01*
X299181Y446801D01*
X299164Y446803D01*
X299151Y446805D01*
X299142D01*
X299136D01*
X299134D01*
X299101Y446803D01*
X299067Y446799D01*
X299035Y446793D01*
X299003Y446784D01*
X298940Y446760D01*
X298882Y446735D01*
X298856Y446720D01*
X298833Y446707D01*
X298813Y446696D01*
X298796Y446685D01*
X298781Y446674D01*
X298770Y446668D01*
X298764Y446664D01*
X298762Y446661D01*
X298723Y446631D01*
X298682Y446597D01*
X298639Y446556D01*
X298596Y446515D01*
X298551Y446470D01*
X298508Y446423D01*
X298463Y446378D01*
X298422Y446330D01*
X298383Y446287D01*
X298347Y446246D01*
X298312Y446208D01*
X298284Y446176D01*
X298261Y446148D01*
X298244Y446126D01*
X298233Y446113D01*
X298229Y446111D01*
Y446109D01*
X298190Y446062D01*
X298151Y446016D01*
X298115Y445973D01*
X298078Y445935D01*
X298046Y445898D01*
X298013Y445864D01*
X297986Y445834D01*
X297958Y445808D01*
X297934Y445784D01*
X297913Y445763D01*
X297893Y445746D01*
X297878Y445730D01*
X297865Y445720D01*
X297857Y445711D01*
X297850Y445707D01*
X297848Y445705D01*
X297788Y445655D01*
X297728Y445614D01*
X297672Y445578D01*
X297620Y445550D01*
X297599Y445539D01*
X297577Y445528D01*
X297560Y445520D01*
X297545Y445513D01*
X297532Y445507D01*
X297523Y445503D01*
X297517Y445501D01*
X297515D01*
X297476Y445488D01*
X297437Y445479D01*
X297403Y445472D01*
X297371Y445468D01*
X297343Y445466D01*
X297321D01*
X297313D01*
X297306D01*
X297304D01*
X297302D01*
Y447128D01*
X297599D01*
Y445894D01*
D02*
G37*
G36*
X298181Y444888D02*
X298123Y444873D01*
X298069Y444858D01*
X298020Y444838D01*
X297973Y444817D01*
X297930Y444795D01*
X297891Y444774D01*
X297857Y444752D01*
X297824Y444731D01*
X297796Y444709D01*
X297773Y444690D01*
X297751Y444671D01*
X297734Y444656D01*
X297721Y444643D01*
X297712Y444632D01*
X297706Y444625D01*
X297704Y444623D01*
X297676Y444587D01*
X297650Y444548D01*
X297629Y444507D01*
X297611Y444468D01*
X297594Y444428D01*
X297581Y444389D01*
X297571Y444352D01*
X297562Y444316D01*
X297556Y444281D01*
X297551Y444251D01*
X297547Y444223D01*
X297545Y444200D01*
Y444180D01*
X297543Y444165D01*
Y444152D01*
X297545Y444109D01*
X297547Y444068D01*
X297562Y443989D01*
X297571Y443950D01*
X297579Y443916D01*
X297590Y443884D01*
X297603Y443851D01*
X297614Y443823D01*
X297624Y443800D01*
X297633Y443778D01*
X297642Y443759D01*
X297650Y443744D01*
X297657Y443733D01*
X297659Y443727D01*
X297661Y443724D01*
X297685Y443688D01*
X297710Y443656D01*
X297738Y443623D01*
X297766Y443596D01*
X297796Y443570D01*
X297827Y443546D01*
X297854Y443525D01*
X297884Y443505D01*
X297910Y443488D01*
X297936Y443473D01*
X297960Y443462D01*
X297979Y443451D01*
X297994Y443445D01*
X298007Y443439D01*
X298016Y443436D01*
X298018Y443434D01*
X298063Y443417D01*
X298110Y443404D01*
X298207Y443381D01*
X298300Y443365D01*
X298345Y443359D01*
X298388Y443353D01*
X298429Y443351D01*
X298465Y443346D01*
X298497Y443344D01*
X298525D01*
X298547Y443342D01*
X298564D01*
X298575D01*
X298579D01*
X298671Y443346D01*
X298760Y443355D01*
X298800Y443359D01*
X298839Y443365D01*
X298878Y443374D01*
X298912Y443381D01*
X298944Y443387D01*
X298972Y443396D01*
X298998Y443402D01*
X299020Y443406D01*
X299037Y443413D01*
X299050Y443415D01*
X299058Y443419D01*
X299061D01*
X299104Y443436D01*
X299144Y443454D01*
X299183Y443473D01*
X299218Y443495D01*
X299252Y443518D01*
X299282Y443540D01*
X299310Y443563D01*
X299336Y443585D01*
X299357Y443606D01*
X299379Y443628D01*
X299396Y443645D01*
X299409Y443660D01*
X299420Y443673D01*
X299428Y443684D01*
X299432Y443690D01*
X299435Y443692D01*
X299458Y443731D01*
X299480Y443770D01*
X299499Y443811D01*
X299516Y443851D01*
X299529Y443892D01*
X299540Y443933D01*
X299549Y443972D01*
X299557Y444008D01*
X299564Y444045D01*
X299568Y444077D01*
X299570Y444105D01*
X299572Y444131D01*
X299574Y444150D01*
Y444178D01*
X299572Y444223D01*
X299568Y444269D01*
X299564Y444309D01*
X299555Y444350D01*
X299544Y444387D01*
X299534Y444421D01*
X299523Y444453D01*
X299512Y444481D01*
X299499Y444507D01*
X299488Y444529D01*
X299478Y444550D01*
X299467Y444565D01*
X299458Y444578D01*
X299454Y444587D01*
X299450Y444593D01*
X299448Y444595D01*
X299422Y444625D01*
X299394Y444656D01*
X299364Y444681D01*
X299334Y444707D01*
X299267Y444750D01*
X299200Y444787D01*
X299170Y444802D01*
X299142Y444815D01*
X299114Y444825D01*
X299093Y444834D01*
X299074Y444843D01*
X299061Y444847D01*
X299050Y444851D01*
X299048D01*
X299125Y445178D01*
X299190Y445156D01*
X299248Y445133D01*
X299304Y445107D01*
X299357Y445079D01*
X299405Y445049D01*
X299450Y445019D01*
X299488Y444989D01*
X299525Y444959D01*
X299557Y444931D01*
X299585Y444905D01*
X299609Y444879D01*
X299630Y444860D01*
X299645Y444840D01*
X299656Y444828D01*
X299663Y444819D01*
X299665Y444817D01*
X299699Y444767D01*
X299729Y444716D01*
X299755Y444664D01*
X299777Y444610D01*
X299796Y444557D01*
X299811Y444505D01*
X299824Y444453D01*
X299835Y444404D01*
X299841Y444359D01*
X299848Y444318D01*
X299852Y444279D01*
X299856Y444247D01*
Y444221D01*
X299858Y444202D01*
Y444185D01*
X299856Y444122D01*
X299852Y444062D01*
X299843Y444004D01*
X299835Y443948D01*
X299824Y443894D01*
X299811Y443845D01*
X299796Y443798D01*
X299783Y443755D01*
X299768Y443714D01*
X299753Y443679D01*
X299740Y443649D01*
X299729Y443623D01*
X299721Y443602D01*
X299712Y443587D01*
X299708Y443578D01*
X299706Y443574D01*
X299675Y443525D01*
X299643Y443477D01*
X299609Y443432D01*
X299572Y443391D01*
X299536Y443353D01*
X299497Y443318D01*
X299461Y443286D01*
X299426Y443258D01*
X299392Y443232D01*
X299362Y443211D01*
X299334Y443191D01*
X299308Y443176D01*
X299289Y443163D01*
X299273Y443155D01*
X299265Y443151D01*
X299260Y443148D01*
X299205Y443122D01*
X299147Y443099D01*
X299089Y443080D01*
X299030Y443062D01*
X298972Y443047D01*
X298917Y443037D01*
X298861Y443026D01*
X298809Y443019D01*
X298760Y443013D01*
X298717Y443009D01*
X298676Y443004D01*
X298643Y443002D01*
X298616Y443000D01*
X298594D01*
X298581D01*
X298579D01*
X298577D01*
X298510Y443002D01*
X298444Y443007D01*
X298381Y443013D01*
X298319Y443021D01*
X298261Y443030D01*
X298205Y443041D01*
X298153Y443054D01*
X298104Y443067D01*
X298059Y443077D01*
X298020Y443090D01*
X297986Y443101D01*
X297955Y443112D01*
X297934Y443118D01*
X297917Y443125D01*
X297906Y443129D01*
X297902Y443131D01*
X297844Y443157D01*
X297792Y443187D01*
X297741Y443217D01*
X297695Y443247D01*
X297652Y443280D01*
X297611Y443312D01*
X297577Y443344D01*
X297545Y443374D01*
X297517Y443404D01*
X297491Y443430D01*
X297470Y443456D01*
X297452Y443477D01*
X297440Y443495D01*
X297431Y443507D01*
X297424Y443516D01*
X297422Y443518D01*
X297394Y443568D01*
X297369Y443619D01*
X297347Y443675D01*
X297328Y443729D01*
X297313Y443785D01*
X297300Y443841D01*
X297289Y443894D01*
X297280Y443946D01*
X297272Y443993D01*
X297268Y444038D01*
X297263Y444079D01*
X297261Y444114D01*
Y444142D01*
X297259Y444163D01*
Y444180D01*
X297261Y444251D01*
X297268Y444322D01*
X297278Y444387D01*
X297293Y444449D01*
X297308Y444507D01*
X297328Y444561D01*
X297347Y444613D01*
X297366Y444658D01*
X297386Y444701D01*
X297405Y444737D01*
X297424Y444767D01*
X297440Y444795D01*
X297455Y444815D01*
X297465Y444830D01*
X297472Y444840D01*
X297474Y444843D01*
X297517Y444892D01*
X297562Y444937D01*
X297611Y444978D01*
X297663Y445017D01*
X297715Y445051D01*
X297766Y445083D01*
X297818Y445109D01*
X297867Y445135D01*
X297913Y445154D01*
X297958Y445174D01*
X297996Y445189D01*
X298031Y445199D01*
X298059Y445210D01*
X298080Y445217D01*
X298087Y445219D01*
X298093D01*
X298095Y445221D01*
X298097D01*
X298181Y444888D01*
D02*
G37*
G36*
X250688Y461637D02*
X252315D01*
Y461386D01*
X250688Y460240D01*
X250404D01*
Y461328D01*
X249802D01*
Y461637D01*
X250404D01*
Y461977D01*
X250688D01*
Y461637D01*
D02*
G37*
G36*
X252326Y459350D02*
X252296Y459333D01*
X252264Y459315D01*
X252203Y459272D01*
X252148Y459227D01*
X252096Y459182D01*
X252072Y459161D01*
X252053Y459141D01*
X252034Y459122D01*
X252018Y459107D01*
X252006Y459094D01*
X251997Y459083D01*
X251991Y459077D01*
X251988Y459075D01*
X251926Y458999D01*
X251870Y458924D01*
X251821Y458849D01*
X251797Y458812D01*
X251778Y458778D01*
X251758Y458746D01*
X251741Y458718D01*
X251728Y458692D01*
X251715Y458668D01*
X251707Y458651D01*
X251700Y458636D01*
X251696Y458627D01*
X251694Y458625D01*
X251395D01*
X251416Y458679D01*
X251442Y458735D01*
X251468Y458789D01*
X251494Y458840D01*
X251507Y458862D01*
X251518Y458883D01*
X251528Y458903D01*
X251537Y458918D01*
X251543Y458931D01*
X251550Y458939D01*
X251552Y458946D01*
X251554Y458948D01*
X251595Y459012D01*
X251634Y459070D01*
X251668Y459120D01*
X251700Y459163D01*
X251715Y459180D01*
X251728Y459195D01*
X251739Y459208D01*
X251750Y459221D01*
X251756Y459229D01*
X251763Y459236D01*
X251765Y459238D01*
X251767Y459240D01*
X249802D01*
Y459550D01*
X252326D01*
Y459350D01*
D02*
G37*
G36*
X250681Y457770D02*
X250623Y457755D01*
X250569Y457739D01*
X250520Y457720D01*
X250473Y457699D01*
X250430Y457677D01*
X250391Y457656D01*
X250357Y457634D01*
X250324Y457613D01*
X250296Y457591D01*
X250273Y457572D01*
X250251Y457552D01*
X250234Y457537D01*
X250221Y457524D01*
X250213Y457514D01*
X250206Y457507D01*
X250204Y457505D01*
X250176Y457469D01*
X250150Y457430D01*
X250129Y457389D01*
X250112Y457350D01*
X250094Y457309D01*
X250081Y457271D01*
X250071Y457234D01*
X250062Y457198D01*
X250056Y457163D01*
X250051Y457133D01*
X250047Y457105D01*
X250045Y457082D01*
Y457062D01*
X250043Y457047D01*
Y457034D01*
X250045Y456991D01*
X250047Y456950D01*
X250062Y456871D01*
X250071Y456832D01*
X250079Y456798D01*
X250090Y456766D01*
X250103Y456733D01*
X250114Y456705D01*
X250124Y456682D01*
X250133Y456660D01*
X250142Y456641D01*
X250150Y456626D01*
X250157Y456615D01*
X250159Y456609D01*
X250161Y456606D01*
X250185Y456570D01*
X250210Y456538D01*
X250238Y456505D01*
X250266Y456477D01*
X250296Y456452D01*
X250326Y456428D01*
X250354Y456406D01*
X250384Y456387D01*
X250410Y456370D01*
X250436Y456355D01*
X250460Y456344D01*
X250479Y456333D01*
X250494Y456327D01*
X250507Y456320D01*
X250516Y456318D01*
X250518Y456316D01*
X250563Y456299D01*
X250610Y456286D01*
X250707Y456262D01*
X250799Y456247D01*
X250845Y456241D01*
X250888Y456235D01*
X250928Y456232D01*
X250965Y456228D01*
X250997Y456226D01*
X251025D01*
X251047Y456224D01*
X251064D01*
X251075D01*
X251079D01*
X251171Y456228D01*
X251260Y456237D01*
X251300Y456241D01*
X251339Y456247D01*
X251378Y456256D01*
X251412Y456262D01*
X251445Y456269D01*
X251472Y456278D01*
X251498Y456284D01*
X251520Y456288D01*
X251537Y456295D01*
X251550Y456297D01*
X251558Y456301D01*
X251561D01*
X251604Y456318D01*
X251644Y456335D01*
X251683Y456355D01*
X251717Y456376D01*
X251752Y456400D01*
X251782Y456422D01*
X251810Y456445D01*
X251836Y456467D01*
X251857Y456488D01*
X251879Y456510D01*
X251896Y456527D01*
X251909Y456542D01*
X251920Y456555D01*
X251928Y456566D01*
X251933Y456572D01*
X251935Y456574D01*
X251958Y456613D01*
X251980Y456652D01*
X251999Y456692D01*
X252016Y456733D01*
X252029Y456774D01*
X252040Y456815D01*
X252049Y456854D01*
X252057Y456890D01*
X252064Y456927D01*
X252068Y456959D01*
X252070Y456987D01*
X252072Y457013D01*
X252074Y457032D01*
Y457060D01*
X252072Y457105D01*
X252068Y457150D01*
X252064Y457191D01*
X252055Y457232D01*
X252044Y457269D01*
X252034Y457303D01*
X252023Y457335D01*
X252012Y457363D01*
X251999Y457389D01*
X251988Y457410D01*
X251978Y457432D01*
X251967Y457447D01*
X251958Y457460D01*
X251954Y457469D01*
X251950Y457475D01*
X251948Y457477D01*
X251922Y457507D01*
X251894Y457537D01*
X251864Y457563D01*
X251834Y457589D01*
X251767Y457632D01*
X251700Y457668D01*
X251670Y457684D01*
X251642Y457696D01*
X251614Y457707D01*
X251593Y457716D01*
X251573Y457724D01*
X251561Y457729D01*
X251550Y457733D01*
X251548D01*
X251625Y458060D01*
X251690Y458038D01*
X251748Y458015D01*
X251803Y457989D01*
X251857Y457961D01*
X251905Y457931D01*
X251950Y457901D01*
X251988Y457871D01*
X252025Y457840D01*
X252057Y457813D01*
X252085Y457787D01*
X252109Y457761D01*
X252130Y457742D01*
X252145Y457722D01*
X252156Y457709D01*
X252163Y457701D01*
X252165Y457699D01*
X252199Y457649D01*
X252229Y457598D01*
X252255Y457546D01*
X252276Y457492D01*
X252296Y457439D01*
X252311Y457387D01*
X252324Y457335D01*
X252335Y457286D01*
X252341Y457241D01*
X252347Y457200D01*
X252352Y457161D01*
X252356Y457129D01*
Y457103D01*
X252358Y457084D01*
Y457066D01*
X252356Y457004D01*
X252352Y456944D01*
X252343Y456886D01*
X252335Y456830D01*
X252324Y456776D01*
X252311Y456727D01*
X252296Y456679D01*
X252283Y456636D01*
X252268Y456596D01*
X252253Y456561D01*
X252240Y456531D01*
X252229Y456505D01*
X252221Y456484D01*
X252212Y456469D01*
X252208Y456460D01*
X252206Y456456D01*
X252175Y456406D01*
X252143Y456359D01*
X252109Y456314D01*
X252072Y456273D01*
X252036Y456235D01*
X251997Y456200D01*
X251960Y456168D01*
X251926Y456140D01*
X251892Y456114D01*
X251862Y456093D01*
X251834Y456073D01*
X251808Y456058D01*
X251788Y456045D01*
X251773Y456037D01*
X251765Y456032D01*
X251761Y456030D01*
X251705Y456004D01*
X251647Y455981D01*
X251589Y455961D01*
X251531Y455944D01*
X251472Y455929D01*
X251416Y455918D01*
X251361Y455908D01*
X251309Y455901D01*
X251260Y455895D01*
X251217Y455891D01*
X251176Y455886D01*
X251144Y455884D01*
X251115Y455882D01*
X251094D01*
X251081D01*
X251079D01*
X251077D01*
X251010Y455884D01*
X250943Y455888D01*
X250881Y455895D01*
X250819Y455903D01*
X250761Y455912D01*
X250705Y455923D01*
X250653Y455936D01*
X250604Y455948D01*
X250559Y455959D01*
X250520Y455972D01*
X250486Y455983D01*
X250455Y455994D01*
X250434Y456000D01*
X250417Y456007D01*
X250406Y456011D01*
X250402Y456013D01*
X250344Y456039D01*
X250292Y456069D01*
X250240Y456099D01*
X250195Y456129D01*
X250152Y456161D01*
X250112Y456194D01*
X250077Y456226D01*
X250045Y456256D01*
X250017Y456286D01*
X249991Y456312D01*
X249970Y456338D01*
X249952Y456359D01*
X249939Y456376D01*
X249931Y456389D01*
X249924Y456398D01*
X249922Y456400D01*
X249894Y456450D01*
X249868Y456501D01*
X249847Y456557D01*
X249828Y456611D01*
X249813Y456667D01*
X249800Y456722D01*
X249789Y456776D01*
X249780Y456828D01*
X249772Y456875D01*
X249767Y456920D01*
X249763Y456961D01*
X249761Y456996D01*
Y457023D01*
X249759Y457045D01*
Y457062D01*
X249761Y457133D01*
X249767Y457204D01*
X249778Y457269D01*
X249793Y457331D01*
X249808Y457389D01*
X249828Y457443D01*
X249847Y457494D01*
X249866Y457540D01*
X249886Y457583D01*
X249905Y457619D01*
X249924Y457649D01*
X249939Y457677D01*
X249955Y457696D01*
X249965Y457712D01*
X249972Y457722D01*
X249974Y457724D01*
X250017Y457774D01*
X250062Y457819D01*
X250112Y457860D01*
X250163Y457899D01*
X250215Y457933D01*
X250266Y457965D01*
X250318Y457991D01*
X250367Y458017D01*
X250413Y458036D01*
X250458Y458055D01*
X250496Y458071D01*
X250531Y458081D01*
X250559Y458092D01*
X250580Y458099D01*
X250587Y458101D01*
X250593D01*
X250595Y458103D01*
X250597D01*
X250681Y457770D01*
D02*
G37*
%LPC*%
G36*
X221819Y446246D02*
X221810D01*
X221761Y446242D01*
X221714Y446233D01*
X221669Y446223D01*
X221630Y446208D01*
X221598Y446195D01*
X221585Y446188D01*
X221574Y446182D01*
X221565Y446177D01*
X221559Y446173D01*
X221555Y446171D01*
X221552D01*
X221509Y446139D01*
X221473Y446104D01*
X221441Y446068D01*
X221415Y446031D01*
X221393Y445999D01*
X221385Y445986D01*
X221378Y445973D01*
X221372Y445963D01*
X221368Y445956D01*
X221365Y445952D01*
Y445950D01*
X221344Y445894D01*
X221327Y445840D01*
X221316Y445788D01*
X221307Y445741D01*
X221305Y445722D01*
X221303Y445702D01*
X221301Y445685D01*
Y445672D01*
X221299Y445659D01*
Y445651D01*
Y445646D01*
Y445644D01*
X221301Y445599D01*
X221305Y445558D01*
X221312Y445517D01*
X221322Y445481D01*
X221333Y445444D01*
X221344Y445412D01*
X221357Y445384D01*
X221372Y445356D01*
X221385Y445333D01*
X221398Y445311D01*
X221408Y445294D01*
X221421Y445279D01*
X221430Y445266D01*
X221436Y445257D01*
X221441Y445253D01*
X221443Y445251D01*
X221471Y445225D01*
X221501Y445201D01*
X221531Y445182D01*
X221561Y445163D01*
X221589Y445150D01*
X221619Y445137D01*
X221647Y445126D01*
X221675Y445120D01*
X221701Y445113D01*
X221724Y445109D01*
X221744Y445105D01*
X221763Y445103D01*
X221778Y445100D01*
X221797D01*
X221836Y445103D01*
X221873Y445107D01*
X221909Y445113D01*
X221942Y445124D01*
X221974Y445135D01*
X222002Y445148D01*
X222028Y445161D01*
X222053Y445176D01*
X222075Y445189D01*
X222094Y445204D01*
X222109Y445217D01*
X222122Y445227D01*
X222133Y445238D01*
X222142Y445244D01*
X222146Y445249D01*
X222148Y445251D01*
X222172Y445281D01*
X222193Y445311D01*
X222213Y445345D01*
X222230Y445378D01*
X222243Y445412D01*
X222253Y445447D01*
X222270Y445513D01*
X222277Y445543D01*
X222281Y445571D01*
X222283Y445597D01*
X222286Y445618D01*
X222288Y445636D01*
Y445651D01*
Y445659D01*
Y445661D01*
X222286Y445711D01*
X222281Y445758D01*
X222275Y445801D01*
X222266Y445842D01*
X222255Y445881D01*
X222243Y445915D01*
X222230Y445948D01*
X222217Y445978D01*
X222204Y446003D01*
X222191Y446025D01*
X222178Y446044D01*
X222167Y446061D01*
X222159Y446072D01*
X222152Y446083D01*
X222148Y446087D01*
X222146Y446089D01*
X222120Y446117D01*
X222092Y446141D01*
X222062Y446163D01*
X222034Y446180D01*
X222006Y446195D01*
X221978Y446208D01*
X221952Y446218D01*
X221926Y446227D01*
X221901Y446233D01*
X221879Y446238D01*
X221860Y446242D01*
X221843Y446244D01*
X221830D01*
X221819Y446246D01*
D02*
G37*
G36*
X299316Y448446D02*
X298188D01*
Y447661D01*
X299316Y448446D01*
D02*
G37*
G36*
X251816Y461328D02*
X250688D01*
Y460543D01*
X251816Y461328D01*
D02*
G37*
%LPD*%
D10*
X204343Y419669D02*
X209658D01*
X204343Y428331D02*
X209658D01*
X204343Y419669D02*
Y428331D01*
X209658Y419669D02*
Y428331D01*
D11*
X207433Y441960D02*
X225567D01*
Y451040D01*
X207433D02*
X225567D01*
X207433Y441960D02*
Y451040D01*
X301937Y434732D02*
Y451268D01*
X294063D02*
X301937D01*
X294063Y434732D02*
Y451268D01*
Y434732D02*
X301937D01*
X246563Y447614D02*
X254437D01*
X246563D02*
Y464150D01*
X254437D01*
Y447614D02*
Y464150D01*
M02*
