G04*
G04 #@! TF.GenerationSoftware,Altium Limited,Altium Designer,22.6.1 (34)*
G04*
G04 Layer_Color=255*
%FSLAX25Y25*%
%MOIN*%
G70*
G04*
G04 #@! TF.SameCoordinates,DDC90878-0471-41C9-9F99-EECD3968BD0F*
G04*
G04*
G04 #@! TF.FilePolarity,Positive*
G04*
G01*
G75*
%ADD17R,0.02874X0.03701*%
%ADD18R,0.07165X0.04213*%
%ADD21R,0.03543X0.02756*%
%ADD24R,0.04213X0.07165*%
%ADD27R,0.03701X0.02874*%
%ADD29R,0.02756X0.03543*%
%ADD60C,0.14055*%
%ADD61C,0.05906*%
%ADD62R,0.06791X0.06791*%
%ADD63C,0.06791*%
%ADD64R,0.06791X0.06791*%
%ADD65C,0.07874*%
%ADD66R,0.06496X0.06496*%
%ADD67C,0.06496*%
%ADD68R,0.05906X0.05906*%
%ADD69R,0.06496X0.06496*%
%ADD75R,0.01575X0.02362*%
%ADD76R,0.10000X0.04016*%
%ADD77R,0.04921X0.02362*%
%ADD78R,0.04528X0.04528*%
%ADD79R,0.03937X0.03740*%
%ADD80R,0.05136X0.07111*%
%ADD81R,0.01181X0.06299*%
%ADD82R,0.06299X0.01181*%
%ADD83R,0.07087X0.05512*%
%ADD84R,0.05512X0.03740*%
%ADD85R,0.03740X0.05512*%
%ADD86R,0.03543X0.02559*%
%ADD87R,0.04528X0.02362*%
%ADD88R,0.02559X0.03543*%
%ADD89R,0.03543X0.03740*%
%ADD90R,0.08858X0.06299*%
%ADD91R,0.04134X0.02165*%
%ADD92R,0.04724X0.02362*%
%ADD93R,0.07874X0.21654*%
D17*
X306295Y283000D02*
D03*
X300705D02*
D03*
X316705Y481000D02*
D03*
X322295D02*
D03*
X173705Y456000D02*
D03*
X179295D02*
D03*
X154205Y408500D02*
D03*
X159795D02*
D03*
X308795Y357500D02*
D03*
X303205D02*
D03*
D18*
X308500Y448933D02*
D03*
Y438067D02*
D03*
D21*
X172000Y299047D02*
D03*
Y304953D02*
D03*
X167500Y414453D02*
D03*
Y408547D02*
D03*
X286000Y340453D02*
D03*
Y334547D02*
D03*
D24*
X358933Y293500D02*
D03*
X348067D02*
D03*
X166933Y430500D02*
D03*
X156067D02*
D03*
D27*
X241000Y455705D02*
D03*
Y461295D02*
D03*
X316500Y443705D02*
D03*
Y449295D02*
D03*
X201138Y390489D02*
D03*
Y396080D02*
D03*
D29*
X173547Y450000D02*
D03*
X179453D02*
D03*
X203047Y435434D02*
D03*
X208953D02*
D03*
X201091Y385000D02*
D03*
X195185D02*
D03*
D60*
X142331Y270571D02*
D03*
Y322303D02*
D03*
D61*
X153000Y282658D02*
D03*
Y292500D02*
D03*
Y300374D02*
D03*
Y310216D02*
D03*
X255500Y287500D02*
D03*
X265500D02*
D03*
D62*
X266500Y475500D02*
D03*
X274500Y273500D02*
D03*
X243023Y287500D02*
D03*
X176500Y279000D02*
D03*
D63*
X276500Y475500D02*
D03*
X286500D02*
D03*
X296500D02*
D03*
X306500D02*
D03*
X263500Y450500D02*
D03*
X345000Y376000D02*
D03*
Y366000D02*
D03*
Y356000D02*
D03*
Y346000D02*
D03*
X264500Y273500D02*
D03*
X233023Y287500D02*
D03*
X223023D02*
D03*
X213023D02*
D03*
X203023D02*
D03*
X263500Y403500D02*
D03*
X186500Y279000D02*
D03*
D64*
X263500Y460500D02*
D03*
X345000Y336000D02*
D03*
X263500Y393500D02*
D03*
D65*
X143409Y434442D02*
D03*
X222228D02*
D03*
D66*
X329000Y351000D02*
D03*
X210000Y309500D02*
D03*
D67*
X329000Y341000D02*
D03*
Y331000D02*
D03*
Y321000D02*
D03*
Y311000D02*
D03*
Y301000D02*
D03*
X351500Y277500D02*
D03*
X210000Y319500D02*
D03*
Y329500D02*
D03*
Y339500D02*
D03*
Y349500D02*
D03*
Y359500D02*
D03*
X273500Y367000D02*
D03*
X263500D02*
D03*
X253500D02*
D03*
X243500D02*
D03*
X233500D02*
D03*
D68*
X275500Y287500D02*
D03*
D69*
X283500Y367000D02*
D03*
D75*
X341362Y281732D02*
D03*
X343921D02*
D03*
X346480D02*
D03*
Y273268D02*
D03*
X343921D02*
D03*
X341362D02*
D03*
D76*
X194000Y465631D02*
D03*
Y474647D02*
D03*
D77*
X199421Y453740D02*
D03*
Y450000D02*
D03*
Y446260D02*
D03*
X189579D02*
D03*
Y453740D02*
D03*
X178907Y306240D02*
D03*
Y298760D02*
D03*
X188749D02*
D03*
Y302500D02*
D03*
Y306240D02*
D03*
D78*
X229000Y474000D02*
D03*
Y464748D02*
D03*
D79*
X215000Y474000D02*
D03*
Y467701D02*
D03*
D80*
X210985Y446500D02*
D03*
X222015D02*
D03*
D81*
X268264Y309050D02*
D03*
X266295D02*
D03*
X264327D02*
D03*
X262358D02*
D03*
X260390D02*
D03*
X258421D02*
D03*
X256453D02*
D03*
X254484D02*
D03*
X252516D02*
D03*
X250547D02*
D03*
X248579D02*
D03*
X246610D02*
D03*
X244642D02*
D03*
X242673D02*
D03*
X240705D02*
D03*
X238736D02*
D03*
Y353145D02*
D03*
X240705D02*
D03*
X242673D02*
D03*
X244642D02*
D03*
X246610D02*
D03*
X248579D02*
D03*
X250547D02*
D03*
X252516D02*
D03*
X254484D02*
D03*
X256453D02*
D03*
X258421D02*
D03*
X260390D02*
D03*
X262358D02*
D03*
X264327D02*
D03*
X266295D02*
D03*
X268264D02*
D03*
D82*
X231453Y316334D02*
D03*
Y318302D02*
D03*
Y320271D02*
D03*
Y322239D02*
D03*
Y324208D02*
D03*
Y326176D02*
D03*
Y328145D02*
D03*
Y330113D02*
D03*
Y332082D02*
D03*
Y334050D02*
D03*
Y336019D02*
D03*
Y337987D02*
D03*
Y339956D02*
D03*
Y341924D02*
D03*
Y343893D02*
D03*
Y345861D02*
D03*
X275547D02*
D03*
Y343893D02*
D03*
Y341924D02*
D03*
Y339956D02*
D03*
Y337987D02*
D03*
Y336019D02*
D03*
Y334050D02*
D03*
Y332082D02*
D03*
Y330113D02*
D03*
Y328145D02*
D03*
Y326176D02*
D03*
Y324208D02*
D03*
Y322239D02*
D03*
Y320271D02*
D03*
Y318302D02*
D03*
Y316334D02*
D03*
D83*
X298000Y437882D02*
D03*
Y448118D02*
D03*
X250500Y461000D02*
D03*
Y450764D02*
D03*
D84*
X287000Y440760D02*
D03*
Y448240D02*
D03*
D85*
X316760Y473500D02*
D03*
X324240D02*
D03*
D86*
X319000Y411354D02*
D03*
Y405646D02*
D03*
X294000Y411354D02*
D03*
Y405646D02*
D03*
X306500Y411354D02*
D03*
Y405646D02*
D03*
D87*
X202079Y427740D02*
D03*
Y424000D02*
D03*
Y420260D02*
D03*
X211921D02*
D03*
Y424000D02*
D03*
Y427740D02*
D03*
D88*
X182646Y328500D02*
D03*
X188354D02*
D03*
D89*
X183350Y350000D02*
D03*
X189650D02*
D03*
D90*
X169874Y396500D02*
D03*
X154126D02*
D03*
D91*
X184216Y400740D02*
D03*
Y393260D02*
D03*
X194059D02*
D03*
Y397000D02*
D03*
Y400740D02*
D03*
D92*
X178579Y427740D02*
D03*
Y424000D02*
D03*
Y420260D02*
D03*
X188421D02*
D03*
Y424000D02*
D03*
Y427740D02*
D03*
D93*
X303500Y301597D02*
D03*
Y338999D02*
D03*
M02*
