G04*
G04 #@! TF.GenerationSoftware,Altium Limited,Altium Designer,22.6.1 (34)*
G04*
G04 Layer_Color=32768*
%FSLAX25Y25*%
%MOIN*%
G70*
G04*
G04 #@! TF.SameCoordinates,DDC90878-0471-41C9-9F99-EECD3968BD0F*
G04*
G04*
G04 #@! TF.FilePolarity,Positive*
G04*
G01*
G75*
%ADD10C,0.00394*%
%ADD116C,0.00197*%
D10*
X97843Y333268D02*
X165205D01*
X97843Y259606D02*
Y333268D01*
Y259606D02*
X165205D01*
Y333268D01*
X336146Y287343D02*
X359768D01*
Y267657D02*
Y287343D01*
X336146Y267657D02*
X359768D01*
X336146D02*
Y287343D01*
X203449Y459686D02*
Y480592D01*
X184571D02*
X203449D01*
X184571Y459686D02*
Y480592D01*
Y459686D02*
X203449D01*
X176500Y448130D02*
Y451870D01*
X174630Y450000D02*
X178370D01*
X171776Y447835D02*
X181224D01*
X171776Y452165D02*
X181224D01*
X171776Y447835D02*
Y452165D01*
X181224Y447835D02*
Y452165D01*
X170130Y302000D02*
X173870D01*
X172000Y300130D02*
Y303870D01*
X174165Y297276D02*
Y306724D01*
X169835Y297276D02*
Y306724D01*
Y297276D02*
X174165D01*
X169835Y306724D02*
X174165D01*
X313291Y400429D02*
X324709D01*
X313291D02*
Y416571D01*
X324709D01*
Y400429D02*
Y416571D01*
X288291Y400429D02*
X299709D01*
X288291D02*
Y416571D01*
X299709D01*
Y400429D02*
Y416571D01*
X300791Y400429D02*
X312209D01*
X300791D02*
Y416571D01*
X312209D01*
Y400429D02*
Y416571D01*
X201276Y433269D02*
Y437599D01*
X210724Y433269D02*
Y437599D01*
X201276Y433269D02*
X210724D01*
X201276Y437599D02*
X210724D01*
X204130Y435434D02*
X207870D01*
X206000Y433564D02*
Y437304D01*
X198138Y383130D02*
Y386870D01*
X196268Y385000D02*
X200008D01*
X193413Y387165D02*
X202862D01*
X193413Y382835D02*
X202862D01*
Y387165D01*
X193413Y382835D02*
Y387165D01*
X193571Y322791D02*
Y334209D01*
X177429Y322791D02*
X193571D01*
X177429D02*
Y334209D01*
X193571D01*
X165630Y411500D02*
X169370D01*
X167500Y409630D02*
Y413370D01*
X165335Y406776D02*
Y416224D01*
X169665Y406776D02*
Y416224D01*
X165335D02*
X169665D01*
X165335Y406776D02*
X169665D01*
X317083Y286834D02*
Y353763D01*
X289917D02*
X317083D01*
X289917Y286834D02*
Y353763D01*
Y286834D02*
X317083D01*
X283835Y342224D02*
X288165D01*
X283835Y332776D02*
X288165D01*
X283835D02*
Y342224D01*
X288165Y332776D02*
Y342224D01*
X286000Y335630D02*
Y339370D01*
X284130Y337500D02*
X287870D01*
X358092Y385772D02*
Y468449D01*
X271477Y385772D02*
X358092D01*
X271477D02*
Y468449D01*
X358092D01*
X128815Y337347D02*
Y380654D01*
X168201D01*
Y337347D02*
Y380654D01*
X128815Y337347D02*
X168201D01*
X333673Y287154D02*
X355327D01*
X333673Y268847D02*
Y287154D01*
Y268847D02*
X355327D01*
Y287154D01*
X283335Y277272D02*
X287665D01*
X283335Y267823D02*
X287665D01*
Y277272D01*
X283335Y267823D02*
Y277272D01*
X285500Y270677D02*
Y274417D01*
X283630Y272547D02*
X287370D01*
X283768Y306331D02*
Y347669D01*
X317232D01*
Y306331D02*
Y347669D01*
X283768Y306331D02*
X317232D01*
X180000Y304630D02*
Y308370D01*
X178130Y306500D02*
X181870D01*
X175276Y308665D02*
X184724D01*
X175276Y304335D02*
X184724D01*
X175276D02*
Y308665D01*
X184724Y304335D02*
Y308665D01*
D116*
X298677Y285441D02*
X308323D01*
X298677Y280559D02*
Y285441D01*
Y280559D02*
X308323D01*
Y285441D01*
X260516Y469772D02*
Y481228D01*
X312484D01*
Y469772D02*
Y481228D01*
X260516Y469772D02*
X312484D01*
X257319Y467469D02*
X269681D01*
Y443532D02*
Y467469D01*
X257319Y443532D02*
X269681D01*
X257319D02*
Y467469D01*
X350728Y330016D02*
Y381984D01*
X339272D02*
X350728D01*
X339272Y330016D02*
Y381984D01*
Y330016D02*
X350728D01*
X322721Y357575D02*
X335279D01*
Y294425D02*
Y357575D01*
X322721Y294425D02*
X335279D01*
X322721D02*
Y357575D01*
X281469Y267319D02*
Y279681D01*
X257531Y267319D02*
X281469D01*
X257531D02*
Y279681D01*
X281469D01*
X249007Y281772D02*
Y293228D01*
X197038Y281772D02*
X249007D01*
X197038D02*
Y293228D01*
X249007D01*
X203720Y302925D02*
X216280D01*
X203720D02*
Y366075D01*
X216280D01*
Y302925D02*
Y366075D01*
X290075Y360720D02*
Y373280D01*
X226925Y360720D02*
X290075D01*
X226925D02*
Y373280D01*
X290075D01*
X257319Y386531D02*
X269681D01*
X257319D02*
Y410468D01*
X269681D01*
Y386531D02*
Y410468D01*
X169532Y272819D02*
Y285181D01*
X193468D01*
Y272819D02*
Y285181D01*
X169532Y272819D02*
X193468D01*
X186134Y456890D02*
X202866D01*
X186134Y443110D02*
Y456890D01*
Y443110D02*
X202866D01*
Y456890D01*
X243441Y453677D02*
Y463323D01*
X238559D02*
X243441D01*
X238559Y453677D02*
Y463323D01*
Y453677D02*
X243441D01*
X222602Y456874D02*
X235398D01*
X222602D02*
Y479413D01*
X235398D01*
Y456874D02*
Y479413D01*
X209488Y462681D02*
Y479020D01*
Y462681D02*
X220512D01*
Y479020D01*
X209488D02*
X220512D01*
X280075Y304523D02*
Y357672D01*
X226925D02*
X280075D01*
X226925Y304523D02*
Y357672D01*
Y304523D02*
X280075D01*
X345370Y297673D02*
X361630D01*
X345370Y289327D02*
Y297673D01*
Y289327D02*
X361630D01*
Y297673D01*
X192194Y295610D02*
Y309390D01*
X175462Y295610D02*
X192194D01*
X175462D02*
Y309390D01*
X192194D01*
X290740Y437906D02*
Y451094D01*
X283260D02*
X290740D01*
X283260Y437906D02*
Y451094D01*
Y437906D02*
X290740D01*
X314059Y451323D02*
X318941D01*
Y441677D02*
Y451323D01*
X314059Y441677D02*
X318941D01*
X314059D02*
Y451323D01*
X304327Y435370D02*
X312673D01*
X304327D02*
Y451630D01*
X312673D01*
Y435370D02*
Y451630D01*
X324323Y478559D02*
Y483441D01*
X314677Y478559D02*
X324323D01*
X314677D02*
Y483441D01*
X324323D01*
X327095Y469760D02*
Y477240D01*
X313906Y469760D02*
X327095D01*
X313906D02*
Y477240D01*
X327095D01*
X198697Y398107D02*
X203579D01*
Y388462D02*
Y398107D01*
X198697Y388462D02*
X203579D01*
X198697D02*
Y398107D01*
X192405Y347047D02*
Y352953D01*
X180595Y347047D02*
X192405D01*
X180595D02*
Y352953D01*
X192405D01*
X181323Y453559D02*
Y458441D01*
X171677Y453559D02*
X181323D01*
X171677D02*
Y458441D01*
X181323D01*
X152177Y406059D02*
X161823D01*
Y410941D01*
X152177D02*
X161823D01*
X152177Y406059D02*
Y410941D01*
X148713Y402996D02*
X175287D01*
X148713Y390004D02*
Y402996D01*
Y390004D02*
X175287D01*
Y402996D01*
X153370Y426327D02*
Y434673D01*
X169630D01*
Y426327D02*
Y434673D01*
X153370Y426327D02*
X169630D01*
X197110Y390110D02*
Y403890D01*
X181165Y390110D02*
X197110D01*
X181165D02*
Y403890D01*
X197110D01*
X191768Y417012D02*
Y430988D01*
X175232Y417012D02*
X191768D01*
X175232D02*
Y430988D01*
X191768D01*
X301177Y359941D02*
X310823D01*
X301177Y355059D02*
Y359941D01*
Y355059D02*
X310823D01*
Y359941D01*
X185323Y296059D02*
Y300941D01*
X175677D02*
X185323D01*
X175677Y296059D02*
Y300941D01*
Y296059D02*
X185323D01*
X323327Y271303D02*
Y287563D01*
X331673D01*
Y271303D02*
Y287563D01*
X323327Y271303D02*
X331673D01*
X312858Y370004D02*
X320142D01*
Y382996D01*
X312858D02*
X320142D01*
X312858Y370004D02*
Y382996D01*
X321858Y370004D02*
X329142D01*
Y382996D01*
X321858D02*
X329142D01*
X321858Y370004D02*
Y382996D01*
X192996Y346358D02*
Y353642D01*
X180004D02*
X192996D01*
X180004Y346358D02*
Y353642D01*
Y346358D02*
X192996D01*
X303358Y370004D02*
X310642D01*
Y382996D01*
X303358D02*
X310642D01*
X303358Y370004D02*
Y382996D01*
X254937Y348327D02*
Y356673D01*
Y348327D02*
X271197D01*
Y356673D01*
X254937D02*
X271197D01*
X260370Y337327D02*
Y345673D01*
Y337327D02*
X276630D01*
Y345673D01*
X260370D02*
X276630D01*
X191996Y324858D02*
Y332142D01*
X179004D02*
X191996D01*
X179004Y324858D02*
Y332142D01*
Y324858D02*
X191996D01*
X229870Y324827D02*
X246130D01*
X229870D02*
Y333173D01*
X246130D01*
Y324827D02*
Y333173D01*
X239827Y339370D02*
Y355630D01*
X248173D01*
Y339370D02*
Y355630D01*
X239827Y339370D02*
X248173D01*
X252191Y319409D02*
Y329055D01*
X247309Y319409D02*
X252191D01*
X247309D02*
Y329055D01*
X252191D01*
X230370Y302327D02*
X246630D01*
X230370D02*
Y310673D01*
X246630D01*
Y302327D02*
Y310673D01*
X188559Y304823D02*
X193441D01*
X188559Y295177D02*
Y304823D01*
Y295177D02*
X193441D01*
Y304823D01*
X229870Y313327D02*
X246130D01*
X229870D02*
Y321673D01*
X246130D01*
Y313327D02*
Y321673D01*
X291722Y286493D02*
Y303816D01*
X282666Y286493D02*
X291722D01*
X282666D02*
Y303816D01*
X291722D01*
X263673Y308370D02*
Y324630D01*
X255327Y308370D02*
X263673D01*
X255327D02*
Y324630D01*
X263673D01*
X295370Y296327D02*
X311630D01*
X295370D02*
Y304673D01*
X311630D01*
Y296327D02*
Y304673D01*
M02*
