M48
;Layer_Color=9474304
;FILE_FORMAT=2:3
INCH,LZ
;TYPE=PLATED
T1F00S00C0.012
T2F00S00C0.020
T3F00S00C0.024
T4F00S00C0.035
T5F00S00C0.039
T6F00S00C0.041
T7F00S00C0.043
T8F00S00C0.045
T9F00S00C0.051
T10F00S00C0.094
T11F00S00C0.138
%
T01
X03195Y02745
X0319Y02975
X032Y0308
X03405Y0301
X03445Y0287
X0346Y0269
X02995Y0274
X0295Y0294
X02875Y0307
X0278Y0299
X02735Y0298
X0272Y0305
X0247Y0298
X02395Y0296
X0226
X02115Y02975
X0203
X0192Y029
X01965Y02785
X0228Y0278
X0251Y02785
X0263Y02805
X01685Y02925
X01675Y0307
X01725Y0309
X01505Y03355
X0149Y0352
Y037
X01495Y03855
X01345Y03945
X0134Y0419
X01345Y0448
X0139Y04645
X01765Y0443
X0173Y04345
X01725Y042
X0176Y04105
X0164Y04045
X016Y0415
X01955Y04165
X01965Y0439
X0205Y04405
X0222Y04535
X0233Y0457
X0237Y04365
X0243Y04235
Y0411
X0225Y04105
X02255Y03975
X02235Y0379
X02215Y03645
X0224Y0356
X02185Y03485
X02235Y0342
X02245Y0337
X02425Y03365
X02565Y0336
X0258Y03285
X02535Y033
X0266Y03335
X02819Y03369
X0282Y03465
X0288Y0351
X0274Y03535
X02575Y03455
X02405Y0359
X02455Y039
X02675Y03835
X0281Y0378
X029Y0376
Y0383
X03Y0387
X03005Y0373
X0293Y0366
X0294Y033
X0286
X0297Y03225
X03015
X02595Y03165
X02495
X02375Y0318
X02185Y0313
X02015Y0334
X0195Y03285
X01955Y035
X0194Y0367
X019Y03845
X0174Y039
X01785Y03555
X01755Y0348
X01725Y03245
X02255Y0424
X02695Y0442
X02795Y04545
X02695Y04685
X0303Y0455
X0302Y0431
X02935Y0426
Y0421
X0289Y04235
X02845Y0418
X0282Y0411
X02805Y0405
X0279Y0398
X0285Y03995
X02845Y04325
X031Y04255
Y0421
X0317Y04295
X0321Y0455
Y0468
X0317
X03265Y0403
X0323Y03975
X03265Y03685
X03195
X03215Y03625
X03195Y03555
X03185Y0351
X032Y0341
Y03265
X0338Y03275
X0336Y03625
X0335Y0372
X0327Y0481
X0259Y0484
X02215Y04695
X02065Y0469
X0207Y04815
X0178Y0472
X01625Y048
T02
X0172Y03415
X01785Y03815
X0212Y04055
X0221Y046
X0179Y04625
X03235Y04495
T03
X0196Y0424
X01958Y0432
T04
X02555Y02875
X02655
X02755
T05
X0153Y02827
Y02925
Y03004
Y03102
T06
X03515Y02775
T07
X0329Y0301
Y0311
X021Y03095
Y03195
Y03295
Y03395
Y03495
Y03595
X02335Y0367
X02435
X02535
X02635
X02735
X02835
X0329Y0351
Y0341
Y0331
Y0321
T08
X01765Y0279
X01865
X0203Y02875
X0213
X0223
X0233
X0243
X02645Y02735
X02745
X02635Y03935
Y04035
Y04505
Y04605
X0345Y0376
Y0366
Y0356
Y0346
Y0336
X03065Y04755
X02965
X02865
X02765
X02665
T09
X01434Y04344
X02222
T10
X01423Y02706
Y03223
T11
X0372Y02465
X01135
X0372Y0475
X01135
M30
