G04*
G04 #@! TF.GenerationSoftware,Altium Limited,Altium Designer,22.6.1 (34)*
G04*
G04 Layer_Color=2752767*
%FSLAX25Y25*%
%MOIN*%
G70*
G04*
G04 #@! TF.SameCoordinates,DDC90878-0471-41C9-9F99-EECD3968BD0F*
G04*
G04*
G04 #@! TF.FilePolarity,Positive*
G04*
G01*
G75*
%ADD117C,0.00200*%
%ADD118C,0.00267*%
%ADD119C,0.00133*%
D117*
X141531Y269771D02*
X141931Y270571D01*
X141531Y271371D01*
X142331Y270971D01*
X143131Y271371D01*
X142731Y270571D01*
X143131Y269771D01*
X142331Y270171D01*
X141531Y269771D01*
Y321503D02*
X141931Y322303D01*
X141531Y323103D01*
X142331Y322703D01*
X143131Y323103D01*
X142731Y322303D01*
X143131Y321503D01*
X142331Y321903D01*
X141531Y321503D01*
X153000Y281857D02*
X153400Y282258D01*
X153800D01*
X153400Y282658D01*
X153800Y283057D01*
X153400D01*
X153000Y283457D01*
X152600Y283057D01*
X152200D01*
X152600Y282658D01*
X152200Y282258D01*
X152600D01*
X153000Y281857D01*
Y291700D02*
X153400Y292100D01*
X153800D01*
X153400Y292500D01*
X153800Y292900D01*
X153400D01*
X153000Y293300D01*
X152600Y292900D01*
X152200D01*
X152600Y292500D01*
X152200Y292100D01*
X152600D01*
X153000Y291700D01*
Y299574D02*
X153400Y299974D01*
X153800D01*
X153400Y300374D01*
X153800Y300774D01*
X153400D01*
X153000Y301174D01*
X152600Y300774D01*
X152200D01*
X152600Y300374D01*
X152200Y299974D01*
X152600D01*
X153000Y299574D01*
Y309417D02*
X153400Y309817D01*
X153800D01*
X153400Y310216D01*
X153800Y310616D01*
X153400D01*
X153000Y311017D01*
X152600Y310616D01*
X152200D01*
X152600Y310216D01*
X152200Y309817D01*
X152600D01*
X153000Y309417D01*
X265700Y474700D02*
Y476300D01*
X267300D01*
Y474700D01*
X265700D01*
X275700D02*
Y476300D01*
X277300D01*
Y474700D01*
X275700D01*
X285700D02*
Y476300D01*
X287300D01*
Y474700D01*
X285700D01*
X295700D02*
Y476300D01*
X297300D01*
Y474700D01*
X295700D01*
X305700D02*
Y476300D01*
X307300D01*
Y474700D01*
X305700D01*
X262700Y459700D02*
Y461300D01*
X264300D01*
Y459700D01*
X262700D01*
Y449700D02*
Y451300D01*
X264300D01*
Y449700D01*
X262700D01*
X344200Y375200D02*
Y376800D01*
X345800D01*
Y375200D01*
X344200D01*
Y365200D02*
Y366800D01*
X345800D01*
Y365200D01*
X344200D01*
Y355200D02*
Y356800D01*
X345800D01*
Y355200D01*
X344200D01*
Y345200D02*
Y346800D01*
X345800D01*
Y345200D01*
X344200D01*
Y335200D02*
Y336800D01*
X345800D01*
Y335200D01*
X344200D01*
X143009Y434042D02*
Y433642D01*
X143809D01*
Y434042D01*
X144209D01*
Y434842D01*
X143809D01*
Y435242D01*
X143009D01*
Y434842D01*
X142609D01*
Y434042D01*
X143009D01*
X221828D02*
Y433642D01*
X222628D01*
Y434042D01*
X223028D01*
Y434842D01*
X222628D01*
Y435242D01*
X221828D01*
Y434842D01*
X221428D01*
Y434042D01*
X221828D01*
X329000Y350200D02*
X328200Y351800D01*
X329800D01*
X329000Y350200D01*
Y340200D02*
X328200Y341800D01*
X329800D01*
X329000Y340200D01*
Y330200D02*
X328200Y331800D01*
X329800D01*
X329000Y330200D01*
Y320200D02*
X328200Y321800D01*
X329800D01*
X329000Y320200D01*
Y310200D02*
X328200Y311800D01*
X329800D01*
X329000Y310200D01*
Y300200D02*
X328200Y301800D01*
X329800D01*
X329000Y300200D01*
X273700Y272700D02*
Y274300D01*
X275300D01*
Y272700D01*
X273700D01*
X263700D02*
Y274300D01*
X265300D01*
Y272700D01*
X263700D01*
X242223Y286700D02*
Y288300D01*
X243823D01*
Y286700D01*
X242223D01*
X232223D02*
Y288300D01*
X233823D01*
Y286700D01*
X232223D01*
X222223D02*
Y288300D01*
X223823D01*
Y286700D01*
X222223D01*
X212223D02*
Y288300D01*
X213823D01*
Y286700D01*
X212223D01*
X202223D02*
Y288300D01*
X203823D01*
Y286700D01*
X202223D01*
X210000Y308700D02*
X209200Y310300D01*
X210800D01*
X210000Y308700D01*
Y318700D02*
X209200Y320300D01*
X210800D01*
X210000Y318700D01*
Y328700D02*
X209200Y330300D01*
X210800D01*
X210000Y328700D01*
Y338700D02*
X209200Y340300D01*
X210800D01*
X210000Y338700D01*
Y348700D02*
X209200Y350300D01*
X210800D01*
X210000Y348700D01*
Y358700D02*
X209200Y360300D01*
X210800D01*
X210000Y358700D01*
X283500Y366200D02*
X282700Y367800D01*
X284300D01*
X283500Y366200D01*
X273500D02*
X272700Y367800D01*
X274300D01*
X273500Y366200D01*
X263500D02*
X262700Y367800D01*
X264300D01*
X263500Y366200D01*
X253500D02*
X252700Y367800D01*
X254300D01*
X253500Y366200D01*
X243500D02*
X242700Y367800D01*
X244300D01*
X243500Y366200D01*
X233500D02*
X232700Y367800D01*
X234300D01*
X233500Y366200D01*
X262700Y392700D02*
Y394300D01*
X264300D01*
Y392700D01*
X262700D01*
Y402700D02*
Y404300D01*
X264300D01*
Y402700D01*
X262700D01*
X175700Y278200D02*
Y279800D01*
X177300D01*
Y278200D01*
X175700D01*
X185700D02*
Y279800D01*
X187300D01*
Y278200D01*
X185700D01*
X178200Y462500D02*
X179000Y463300D01*
X179800Y462500D01*
X179000Y461700D01*
X178200Y462500D01*
X220700Y468700D02*
Y470300D01*
X222300D01*
Y468700D01*
X220700D01*
X221100Y469100D02*
Y469900D01*
X221900D01*
Y469100D01*
X221100D01*
X205700Y468200D02*
Y469800D01*
X207300D01*
Y468200D01*
X205700D01*
X206100Y468600D02*
Y469400D01*
X206900D01*
Y468600D01*
X206100D01*
X268700Y467700D02*
Y469300D01*
X270300D01*
Y467700D01*
X268700D01*
X269100Y468100D02*
Y468900D01*
X269900D01*
Y468100D01*
X269100D01*
X316200Y467200D02*
Y468800D01*
X317800D01*
Y467200D01*
X316200D01*
X316600Y467600D02*
Y468400D01*
X317400D01*
Y467600D01*
X316600D01*
X322700Y449500D02*
X323500Y450300D01*
X324300Y449500D01*
X323500Y448700D01*
X322700Y449500D01*
X320200Y467200D02*
Y468800D01*
X321800D01*
Y467200D01*
X320200D01*
X320600Y467600D02*
Y468400D01*
X321400D01*
Y467600D01*
X320600D01*
X302200Y454200D02*
Y455800D01*
X303800D01*
Y454200D01*
X302200D01*
X302600Y454600D02*
Y455400D01*
X303400D01*
Y454600D01*
X302600D01*
X278700Y453700D02*
Y455300D01*
X280300D01*
Y453700D01*
X278700D01*
X279100Y454100D02*
Y454900D01*
X279900D01*
Y454100D01*
X279100D01*
X320200Y454200D02*
Y455800D01*
X321800D01*
Y454200D01*
X320200D01*
X320600Y454600D02*
Y455400D01*
X321400D01*
Y454600D01*
X320600D01*
X288200Y422700D02*
Y424300D01*
X289800D01*
Y422700D01*
X288200D01*
X288600Y423100D02*
Y423900D01*
X289400D01*
Y423100D01*
X288600D01*
X195700Y277700D02*
Y279300D01*
X197300D01*
Y277700D01*
X195700D01*
X196100Y278100D02*
Y278900D01*
X196900D01*
Y278100D01*
X196100D01*
X294200Y293200D02*
Y294800D01*
X295800D01*
Y293200D01*
X294200D01*
X294600Y293600D02*
Y294400D01*
X295400D01*
Y293600D01*
X294600D01*
X318200Y296700D02*
Y298300D01*
X319800D01*
Y296700D01*
X318200D01*
X318600Y297100D02*
Y297900D01*
X319400D01*
Y297100D01*
X318600D01*
X343700Y286200D02*
Y287800D01*
X345300D01*
Y286200D01*
X343700D01*
X344100Y286600D02*
Y287400D01*
X344900D01*
Y286600D01*
X344100D01*
X191200Y289200D02*
Y290800D01*
X192800D01*
Y289200D01*
X191200D01*
X191600Y289600D02*
Y290400D01*
X192400D01*
Y289600D01*
X191600D01*
X210700Y296700D02*
Y298300D01*
X212300D01*
Y296700D01*
X210700D01*
X211100Y297100D02*
Y297900D01*
X211900D01*
Y297100D01*
X211100D01*
X232200Y456200D02*
Y457800D01*
X233800D01*
Y456200D01*
X232200D01*
X232600Y456600D02*
Y457400D01*
X233400D01*
Y456600D01*
X232600D01*
X268700Y441200D02*
Y442800D01*
X270300D01*
Y441200D01*
X268700D01*
X269100Y441600D02*
Y442400D01*
X269900D01*
Y441600D01*
X269100D01*
X239700Y358200D02*
Y359800D01*
X241300D01*
Y358200D01*
X239700D01*
X240100Y358600D02*
Y359400D01*
X240900D01*
Y358600D01*
X240100D01*
X220700Y363700D02*
Y365300D01*
X222300D01*
Y363700D01*
X220700D01*
X221100Y364100D02*
Y364900D01*
X221900D01*
Y364100D01*
X221100D01*
X222700Y378200D02*
Y379800D01*
X224300D01*
Y378200D01*
X222700D01*
X223100Y378600D02*
Y379400D01*
X223900D01*
Y378600D01*
X223100D01*
X244700Y389200D02*
Y390800D01*
X246300D01*
Y389200D01*
X244700D01*
X245100Y389600D02*
Y390400D01*
X245900D01*
Y389600D01*
X245100D01*
X224700Y396700D02*
Y398300D01*
X226300D01*
Y396700D01*
X224700D01*
X225100Y397100D02*
Y397900D01*
X225900D01*
Y397100D01*
X225100D01*
X236200Y435700D02*
Y437300D01*
X237800D01*
Y435700D01*
X236200D01*
X236600Y436100D02*
Y436900D01*
X237400D01*
Y436100D01*
X236600D01*
X193200Y366200D02*
Y367800D01*
X194800D01*
Y366200D01*
X193200D01*
X193600Y366600D02*
Y367400D01*
X194400D01*
Y366600D01*
X193600D01*
X318700Y273700D02*
Y275300D01*
X320300D01*
Y273700D01*
X318700D01*
X319100Y274100D02*
Y274900D01*
X319900D01*
Y274100D01*
X319100D01*
X318700Y354700D02*
Y356300D01*
X320300D01*
Y354700D01*
X318700D01*
X319100Y355100D02*
Y355900D01*
X319900D01*
Y355100D01*
X319100D01*
X250200Y277700D02*
Y279300D01*
X251800D01*
Y277700D01*
X250200D01*
X250600Y278100D02*
Y278900D01*
X251400D01*
Y278100D01*
X250600D01*
X246200Y297200D02*
Y298800D01*
X247800D01*
Y297200D01*
X246200D01*
X246600Y297600D02*
Y298400D01*
X247400D01*
Y297600D01*
X246600D01*
X238700Y295200D02*
Y296800D01*
X240300D01*
Y295200D01*
X238700D01*
X239100Y295600D02*
Y296400D01*
X239900D01*
Y295600D01*
X239100D01*
X225200Y295200D02*
Y296800D01*
X226800D01*
Y295200D01*
X225200D01*
X225600Y295600D02*
Y296400D01*
X226400D01*
Y295600D01*
X225600D01*
X227200Y277200D02*
Y278800D01*
X228800D01*
Y277200D01*
X227200D01*
X227600Y277600D02*
Y278400D01*
X228400D01*
Y277600D01*
X227600D01*
X265200Y332700D02*
Y334300D01*
X266800D01*
Y332700D01*
X265200D01*
X265600Y333100D02*
Y333900D01*
X266400D01*
Y333100D01*
X265600D01*
X257200Y327700D02*
Y329300D01*
X258800D01*
Y327700D01*
X257200D01*
X257600Y328100D02*
Y328900D01*
X258400D01*
Y328100D01*
X257600D01*
X241700Y335700D02*
Y337300D01*
X243300D01*
Y335700D01*
X241700D01*
X242100Y336100D02*
Y336900D01*
X242900D01*
Y336100D01*
X242100D01*
X256700Y344700D02*
Y346300D01*
X258300D01*
Y344700D01*
X256700D01*
X257100Y345100D02*
Y345900D01*
X257900D01*
Y345100D01*
X257100D01*
X217700Y312200D02*
Y313800D01*
X219300D01*
Y312200D01*
X217700D01*
X218100Y312600D02*
Y313400D01*
X218900D01*
Y312600D01*
X218100D01*
X277200Y298200D02*
Y299800D01*
X278800D01*
Y298200D01*
X277200D01*
X277600Y298600D02*
Y299400D01*
X278400D01*
Y298600D01*
X277600D01*
X223200Y355200D02*
Y356800D01*
X224800D01*
Y355200D01*
X223200D01*
X223600Y355600D02*
Y356400D01*
X224400D01*
Y355600D01*
X223600D01*
X217700Y347700D02*
Y349300D01*
X219300D01*
Y347700D01*
X217700D01*
X218100Y348100D02*
Y348900D01*
X218900D01*
Y348100D01*
X218100D01*
X326200Y480200D02*
Y481800D01*
X327800D01*
Y480200D01*
X326200D01*
X326600Y480600D02*
Y481400D01*
X327400D01*
Y480600D01*
X326600D01*
X161700Y479200D02*
Y480800D01*
X163300D01*
Y479200D01*
X161700D01*
X162100Y479600D02*
Y480400D01*
X162900D01*
Y479600D01*
X162100D01*
X345200Y268200D02*
Y269800D01*
X346800D01*
Y268200D01*
X345200D01*
X345600Y268600D02*
Y269400D01*
X346400D01*
Y268600D01*
X345600D01*
X298700Y273200D02*
Y274800D01*
X300300D01*
Y273200D01*
X298700D01*
X299100Y273600D02*
Y274400D01*
X299900D01*
Y273600D01*
X299100D01*
X171700Y323700D02*
Y325300D01*
X173300D01*
Y323700D01*
X171700D01*
X172100Y324100D02*
Y324900D01*
X172900D01*
Y324100D01*
X172100D01*
X258200Y483200D02*
Y484800D01*
X259800D01*
Y483200D01*
X258200D01*
X258600Y483600D02*
Y484400D01*
X259400D01*
Y483600D01*
X258600D01*
X133200Y418200D02*
Y419800D01*
X134800D01*
Y418200D01*
X133200D01*
X133600Y418600D02*
Y419400D01*
X134400D01*
Y418600D01*
X133600D01*
X149700Y334700D02*
Y336300D01*
X151300D01*
Y334700D01*
X149700D01*
X150100Y335100D02*
Y335900D01*
X150900D01*
Y335100D01*
X150100D01*
X175700Y442200D02*
Y443800D01*
X177300D01*
Y442200D01*
X175700D01*
X176100Y442600D02*
Y443400D01*
X176900D01*
Y442600D01*
X176100D01*
X148200Y351200D02*
Y352800D01*
X149800D01*
Y351200D01*
X148200D01*
X148600Y351600D02*
Y352400D01*
X149400D01*
Y351600D01*
X148600D01*
X220200Y460000D02*
X221000Y460800D01*
X221800Y460000D01*
X221000Y459200D01*
X220200Y460000D01*
X211200Y405500D02*
X212000Y406300D01*
X212800Y405500D01*
X212000Y404700D01*
X211200Y405500D01*
X195200Y423200D02*
X195600D01*
X196000Y423600D01*
X196400Y423200D01*
X196800D01*
Y423600D01*
X196400Y424000D01*
X196800Y424400D01*
Y424800D01*
X196400D01*
X196000Y424400D01*
X195600Y424800D01*
X195200D01*
Y424400D01*
X195600Y424000D01*
X195200Y423600D01*
Y423200D01*
X221200Y452700D02*
Y454300D01*
X222800D01*
Y452700D01*
X221200D01*
X221600Y453100D02*
Y453900D01*
X222400D01*
Y453100D01*
X221600D01*
X325700Y367700D02*
Y369300D01*
X327300D01*
Y367700D01*
X325700D01*
X326100Y368100D02*
Y368900D01*
X326900D01*
Y368100D01*
X326100D01*
X177700Y354700D02*
Y356300D01*
X179300D01*
Y354700D01*
X177700D01*
X178100Y355100D02*
Y355900D01*
X178900D01*
Y355100D01*
X178100D01*
X177700Y381500D02*
X178500Y382300D01*
X179300Y381500D01*
X178500Y380700D01*
X177700Y381500D01*
X189200Y383700D02*
Y385300D01*
X190800D01*
Y383700D01*
X189200D01*
X189600Y384100D02*
Y384900D01*
X190400D01*
Y384100D01*
X189600D01*
X173200Y389200D02*
Y390800D01*
X174800D01*
Y389200D01*
X173200D01*
X173600Y389600D02*
Y390400D01*
X174400D01*
Y389600D01*
X173600D01*
X175200Y409700D02*
Y411300D01*
X176800D01*
Y409700D01*
X175200D01*
X175600Y410100D02*
Y410900D01*
X176400D01*
Y410100D01*
X175600D01*
X148700Y384700D02*
Y386300D01*
X150300D01*
Y384700D01*
X148700D01*
X149100Y385100D02*
Y385900D01*
X149900D01*
Y385100D01*
X149100D01*
X148200Y369200D02*
Y370800D01*
X149800D01*
Y369200D01*
X148200D01*
X148600Y369600D02*
Y370400D01*
X149400D01*
Y369600D01*
X148600D01*
X163200Y403700D02*
Y405300D01*
X164800D01*
Y403700D01*
X163200D01*
X163600Y404100D02*
Y404900D01*
X164400D01*
Y404100D01*
X163600D01*
X177200Y471200D02*
Y472800D01*
X178800D01*
Y471200D01*
X177200D01*
X177600Y471600D02*
Y472400D01*
X178400D01*
Y471600D01*
X177600D01*
X206200Y480700D02*
Y482300D01*
X207800D01*
Y480700D01*
X206200D01*
X206600Y481100D02*
Y481900D01*
X207400D01*
Y481100D01*
X206600D01*
X262200Y279700D02*
Y281300D01*
X263800D01*
Y279700D01*
X262200D01*
X262600Y280100D02*
Y280900D01*
X263400D01*
Y280100D01*
X262600D01*
X194200Y327700D02*
Y329300D01*
X195800D01*
Y327700D01*
X194200D01*
X194600Y328100D02*
Y328900D01*
X195400D01*
Y328100D01*
X194600D01*
X200700Y333200D02*
Y334800D01*
X202300D01*
Y333200D01*
X200700D01*
X201100Y333600D02*
Y334400D01*
X201900D01*
Y333600D01*
X201100D01*
X223700Y336200D02*
Y337800D01*
X225300D01*
Y336200D01*
X223700D01*
X224100Y336600D02*
Y337400D01*
X224900D01*
Y336600D01*
X224100D01*
X202200Y296700D02*
Y298300D01*
X203800D01*
Y296700D01*
X202200D01*
X202600Y297100D02*
Y297900D01*
X203400D01*
Y297100D01*
X202600D01*
X236700Y317200D02*
Y318800D01*
X238300D01*
Y317200D01*
X236700D01*
X237100Y317600D02*
Y318400D01*
X237900D01*
Y317600D01*
X237100D01*
X318700Y367700D02*
Y369300D01*
X320300D01*
Y367700D01*
X318700D01*
X319100Y368100D02*
Y368900D01*
X319900D01*
Y368100D01*
X319100D01*
X292200Y365200D02*
Y366800D01*
X293800D01*
Y365200D01*
X292200D01*
X292600Y365600D02*
Y366400D01*
X293400D01*
Y365600D01*
X292600D01*
X335200Y361700D02*
Y363300D01*
X336800D01*
Y361700D01*
X335200D01*
X335600Y362100D02*
Y362900D01*
X336400D01*
Y362100D01*
X335600D01*
X325700Y402200D02*
Y403800D01*
X327300D01*
Y402200D01*
X325700D01*
X326100Y402600D02*
Y403400D01*
X326900D01*
Y402600D01*
X326100D01*
X204200Y439700D02*
Y441300D01*
X205800D01*
Y439700D01*
X204200D01*
X204600Y440100D02*
Y440900D01*
X205400D01*
Y440100D01*
X204600D01*
X242200Y422700D02*
Y424300D01*
X243800D01*
Y422700D01*
X242200D01*
X242600Y423100D02*
Y423900D01*
X243400D01*
Y423100D01*
X242600D01*
X242200Y410200D02*
Y411800D01*
X243800D01*
Y410200D01*
X242200D01*
X242600Y410600D02*
Y411400D01*
X243400D01*
Y410600D01*
X242600D01*
X320700Y361700D02*
Y363300D01*
X322300D01*
Y361700D01*
X320700D01*
X321100Y362100D02*
Y362900D01*
X321900D01*
Y362100D01*
X321100D01*
X334200Y371200D02*
Y372800D01*
X335800D01*
Y371200D01*
X334200D01*
X334600Y371600D02*
Y372400D01*
X335400D01*
Y371600D01*
X334600D01*
X195700Y438200D02*
Y439800D01*
X197300D01*
Y438200D01*
X195700D01*
X196100Y438600D02*
Y439400D01*
X196900D01*
Y438600D01*
X196100D01*
X195000Y431200D02*
X195400D01*
X195800Y431600D01*
X196200Y431200D01*
X196600D01*
Y431600D01*
X196200Y432000D01*
X196600Y432400D01*
Y432800D01*
X196200D01*
X195800Y432400D01*
X195400Y432800D01*
X195000D01*
Y432400D01*
X195400Y432000D01*
X195000Y431600D01*
Y431200D01*
X224700Y423200D02*
Y424800D01*
X226300D01*
Y423200D01*
X224700D01*
X225100Y423600D02*
Y424400D01*
X225900D01*
Y423600D01*
X225100D01*
X194700Y415700D02*
Y417300D01*
X196300D01*
Y415700D01*
X194700D01*
X195100Y416100D02*
Y416900D01*
X195900D01*
Y416100D01*
X195100D01*
X171700Y419200D02*
Y420800D01*
X173300D01*
Y419200D01*
X171700D01*
X172100Y419600D02*
Y420400D01*
X172900D01*
Y419600D01*
X172100D01*
X172200Y433700D02*
Y435300D01*
X173800D01*
Y433700D01*
X172200D01*
X172600Y434100D02*
Y434900D01*
X173400D01*
Y434100D01*
X172600D01*
X159200Y414200D02*
Y415800D01*
X160800D01*
Y414200D01*
X159200D01*
X159600Y414600D02*
Y415400D01*
X160400D01*
Y414600D01*
X159600D01*
X224200Y409700D02*
Y411300D01*
X225800D01*
Y409700D01*
X224200D01*
X224600Y410100D02*
Y410900D01*
X225400D01*
Y410100D01*
X224600D01*
X296200Y321700D02*
Y323300D01*
X297800D01*
Y321700D01*
X296200D01*
X296600Y322100D02*
Y322900D01*
X297400D01*
Y322100D01*
X296600D01*
X293200Y329200D02*
Y330800D01*
X294800D01*
Y329200D01*
X293200D01*
X293600Y329600D02*
Y330400D01*
X294400D01*
Y329600D01*
X293600D01*
X300700Y321700D02*
Y323300D01*
X302300D01*
Y321700D01*
X300700D01*
X301100Y322100D02*
Y322900D01*
X301900D01*
Y322100D01*
X301100D01*
X285200Y329200D02*
Y330800D01*
X286800D01*
Y329200D01*
X285200D01*
X285600Y329600D02*
Y330400D01*
X286400D01*
Y329600D01*
X285600D01*
X286700Y306200D02*
Y307800D01*
X288300D01*
Y306200D01*
X286700D01*
X287100Y306600D02*
Y307400D01*
X287900D01*
Y306600D01*
X287100D01*
X272700Y297200D02*
Y298800D01*
X274300D01*
Y297200D01*
X272700D01*
X273100Y297600D02*
Y298400D01*
X273900D01*
Y297600D01*
X273100D01*
X271200Y304200D02*
Y305800D01*
X272800D01*
Y304200D01*
X271200D01*
X271600Y304600D02*
Y305400D01*
X272400D01*
Y304600D01*
X271600D01*
X222700Y341200D02*
Y342800D01*
X224300D01*
Y341200D01*
X222700D01*
X223100Y341600D02*
Y342400D01*
X223900D01*
Y341600D01*
X223100D01*
X252700Y329200D02*
Y330800D01*
X254300D01*
Y329200D01*
X252700D01*
X253100Y329600D02*
Y330400D01*
X253900D01*
Y329600D01*
X253100D01*
X255700Y335200D02*
Y336800D01*
X257300D01*
Y335200D01*
X255700D01*
X256100Y335600D02*
Y336400D01*
X256900D01*
Y335600D01*
X256100D01*
X281102Y336102D02*
Y337702D01*
X282702D01*
Y336102D01*
X281102D01*
X281502Y336502D02*
Y337302D01*
X282302D01*
Y336502D01*
X281502D01*
X248700Y315700D02*
Y317300D01*
X250300D01*
Y315700D01*
X248700D01*
X249100Y316100D02*
Y316900D01*
X249900D01*
Y316100D01*
X249100D01*
X258700Y315700D02*
Y317300D01*
X260300D01*
Y315700D01*
X258700D01*
X259100Y316100D02*
Y316900D01*
X259900D01*
Y316100D01*
X259100D01*
X174700Y347200D02*
Y348800D01*
X176300D01*
Y347200D01*
X174700D01*
X175100Y347600D02*
Y348400D01*
X175900D01*
Y347600D01*
X175100D01*
X194700Y349200D02*
Y350800D01*
X196300D01*
Y349200D01*
X194700D01*
X195100Y349600D02*
Y350400D01*
X195900D01*
Y349600D01*
X195100D01*
X171200Y341500D02*
X172000Y342300D01*
X172800Y341500D01*
X172000Y340700D01*
X171200Y341500D01*
X317700Y350200D02*
Y351800D01*
X319300D01*
Y350200D01*
X317700D01*
X318100Y350600D02*
Y351400D01*
X318900D01*
Y350600D01*
X318100D01*
X339700Y300200D02*
Y301800D01*
X341300D01*
Y300200D01*
X339700D01*
X340100Y300600D02*
Y301400D01*
X340900D01*
Y300600D01*
X340100D01*
X319200Y340200D02*
Y341800D01*
X320800D01*
Y340200D01*
X319200D01*
X319600Y340600D02*
Y341400D01*
X320400D01*
Y340600D01*
X319600D01*
X319200Y325700D02*
Y327300D01*
X320800D01*
Y325700D01*
X319200D01*
X319600Y326100D02*
Y326900D01*
X320400D01*
Y326100D01*
X319600D01*
X337200Y326700D02*
Y328300D01*
X338800D01*
Y326700D01*
X337200D01*
X337600Y327100D02*
Y327900D01*
X338400D01*
Y327100D01*
X337600D01*
X319200Y307200D02*
Y308800D01*
X320800D01*
Y307200D01*
X319200D01*
X319600Y307600D02*
Y308400D01*
X320400D01*
Y307600D01*
X319600D01*
X289200Y375200D02*
Y376800D01*
X290800D01*
Y375200D01*
X289200D01*
X289600Y375600D02*
Y376400D01*
X290400D01*
Y375600D01*
X289600D01*
X301200Y430200D02*
Y431800D01*
X302800D01*
Y430200D01*
X301200D01*
X301600Y430600D02*
Y431400D01*
X302400D01*
Y430600D01*
X301600D01*
X278200Y397200D02*
Y398800D01*
X279800D01*
Y397200D01*
X278200D01*
X278600Y397600D02*
Y398400D01*
X279400D01*
Y397600D01*
X278600D01*
X322200Y396700D02*
Y398300D01*
X323800D01*
Y396700D01*
X322200D01*
X322600Y397100D02*
Y397900D01*
X323400D01*
Y397100D01*
X322600D01*
X299200Y386200D02*
Y387800D01*
X300800D01*
Y386200D01*
X299200D01*
X299600Y386600D02*
Y387400D01*
X300400D01*
Y386600D01*
X299600D01*
X292700Y425200D02*
Y426800D01*
X294300D01*
Y425200D01*
X292700D01*
X293100Y425600D02*
Y426400D01*
X293900D01*
Y425600D01*
X293100D01*
X292700Y420200D02*
Y421800D01*
X294300D01*
Y420200D01*
X292700D01*
X293100Y420600D02*
Y421400D01*
X293900D01*
Y420600D01*
X293100D01*
X309200Y424700D02*
Y426300D01*
X310800D01*
Y424700D01*
X309200D01*
X309600Y425100D02*
Y425900D01*
X310400D01*
Y425100D01*
X309600D01*
X309200Y420200D02*
Y421800D01*
X310800D01*
Y420200D01*
X309200D01*
X309600Y420600D02*
Y421400D01*
X310400D01*
Y420600D01*
X309600D01*
X283700Y417200D02*
Y418800D01*
X285300D01*
Y417200D01*
X283700D01*
X284100Y417600D02*
Y418400D01*
X284900D01*
Y417600D01*
X284100D01*
X266700Y382700D02*
Y384300D01*
X268300D01*
Y382700D01*
X266700D01*
X267100Y383100D02*
Y383900D01*
X267900D01*
Y383100D01*
X267100D01*
X316200Y428700D02*
Y430300D01*
X317800D01*
Y428700D01*
X316200D01*
X316600Y429100D02*
Y429900D01*
X317400D01*
Y429100D01*
X316600D01*
X166700Y306200D02*
Y307800D01*
X168300D01*
Y306200D01*
X166700D01*
X167100Y306600D02*
Y307400D01*
X167900D01*
Y306600D01*
X167100D01*
X171700Y308200D02*
Y309800D01*
X173300D01*
Y308200D01*
X171700D01*
X172100Y308600D02*
Y309400D01*
X172900D01*
Y308600D01*
X172100D01*
X167700Y291700D02*
Y293300D01*
X169300D01*
Y291700D01*
X167700D01*
X168100Y292100D02*
Y292900D01*
X168900D01*
Y292100D01*
X168100D01*
X281200Y345700D02*
Y347300D01*
X282800D01*
Y345700D01*
X281200D01*
X281600Y346100D02*
Y346900D01*
X282400D01*
Y346100D01*
X281600D01*
X299700Y372200D02*
Y373800D01*
X301300D01*
Y372200D01*
X299700D01*
X300100Y372600D02*
Y373400D01*
X300900D01*
Y372600D01*
X300100D01*
X287200Y350200D02*
Y351800D01*
X288800D01*
Y350200D01*
X287200D01*
X287600Y350600D02*
Y351400D01*
X288400D01*
Y350600D01*
X287600D01*
X283700Y431700D02*
Y433300D01*
X285300D01*
Y431700D01*
X283700D01*
X284100Y432100D02*
Y432900D01*
X284900D01*
Y432100D01*
X284100D01*
X273200Y352700D02*
Y354300D01*
X274800D01*
Y352700D01*
X273200D01*
X273600Y353100D02*
Y353900D01*
X274400D01*
Y353100D01*
X273600D01*
X279700Y404200D02*
Y405800D01*
X281300D01*
Y404200D01*
X279700D01*
X280100Y404600D02*
Y405400D01*
X280900D01*
Y404600D01*
X280100D01*
X284200Y398700D02*
Y400300D01*
X285800D01*
Y398700D01*
X284200D01*
X284600Y399100D02*
Y399900D01*
X285400D01*
Y399100D01*
X284600D01*
X281200Y410200D02*
Y411800D01*
X282800D01*
Y410200D01*
X281200D01*
X281600Y410600D02*
Y411400D01*
X282400D01*
Y410600D01*
X281600D01*
X289200Y382200D02*
Y383800D01*
X290800D01*
Y382200D01*
X289200D01*
X289600Y382600D02*
Y383400D01*
X290400D01*
Y382600D01*
X289600D01*
X280200Y377200D02*
Y378800D01*
X281800D01*
Y377200D01*
X280200D01*
X280600Y377600D02*
Y378400D01*
X281400D01*
Y377600D01*
X280600D01*
X138200Y463700D02*
Y465300D01*
X139800D01*
Y463700D01*
X138200D01*
X138600Y464100D02*
Y464900D01*
X139400D01*
Y464100D01*
X138600D01*
X133700Y393700D02*
Y395300D01*
X135300D01*
Y393700D01*
X133700D01*
X134100Y394100D02*
Y394900D01*
X134900D01*
Y394100D01*
X134100D01*
X133700Y447200D02*
Y448800D01*
X135300D01*
Y447200D01*
X133700D01*
X134100Y447600D02*
Y448400D01*
X134900D01*
Y447600D01*
X134100D01*
X372000Y245700D02*
X371200Y247300D01*
X372800D01*
X372000Y245700D01*
Y246100D02*
X371600Y246900D01*
X372400D01*
X372000Y246100D01*
Y474200D02*
X371200Y475800D01*
X372800D01*
X372000Y474200D01*
Y474600D02*
X371600Y475400D01*
X372400D01*
X372000Y474600D01*
X113500Y245700D02*
X112700Y247300D01*
X114300D01*
X113500Y245700D01*
Y246100D02*
X113100Y246900D01*
X113900D01*
X113500Y246100D01*
Y474200D02*
X112700Y475800D01*
X114300D01*
X113500Y474200D01*
Y474600D02*
X113100Y475400D01*
X113900D01*
X113500Y474600D01*
D118*
X352300Y277500D02*
G03*
X352300Y277500I-800J0D01*
G01*
X256300Y287500D02*
G03*
X256300Y287500I-800J0D01*
G01*
X266300D02*
G03*
X266300Y287500I-800J0D01*
G01*
X276300D02*
G03*
X276300Y287500I-800J0D01*
G01*
D119*
X351900Y277500D02*
G03*
X351900Y277500I-400J0D01*
G01*
M02*
