G04*
G04 #@! TF.GenerationSoftware,Altium Limited,Altium Designer,22.6.1 (34)*
G04*
G04 Layer_Color=32896*
%FSLAX25Y25*%
%MOIN*%
G70*
G04*
G04 #@! TF.SameCoordinates,DDC90878-0471-41C9-9F99-EECD3968BD0F*
G04*
G04*
G04 #@! TF.FilePolarity,Positive*
G04*
G01*
G75*
%ADD10C,0.00394*%
%ADD11C,0.00787*%
%ADD13C,0.01000*%
%ADD112C,0.00000*%
%ADD113C,0.00984*%
%ADD114C,0.00800*%
%ADD115C,0.00591*%
D10*
X340870Y285374D02*
G03*
X340476Y285374I-197J0D01*
G01*
D02*
G03*
X340870Y285374I197J0D01*
G01*
X319000Y402595D02*
G03*
X319000Y402201I0J-197D01*
G01*
D02*
G03*
X319000Y402595I0J197D01*
G01*
X294000D02*
G03*
X294000Y402201I0J-197D01*
G01*
D02*
G03*
X294000Y402595I0J197D01*
G01*
X306500D02*
G03*
X306500Y402201I0J-197D01*
G01*
D02*
G03*
X306500Y402595I0J197D01*
G01*
X191405Y328500D02*
G03*
X191799Y328500I197J0D01*
G01*
D02*
G03*
X191405Y328500I-197J0D01*
G01*
X303500Y289196D02*
G03*
X303500Y288802I0J-197D01*
G01*
D02*
G03*
X303500Y289196I0J197D01*
G01*
X199492Y471714D02*
X199512Y468564D01*
X188508D02*
Y471714D01*
D11*
X229197Y460417D02*
G03*
X229197Y460417I-197J0D01*
G01*
X215197Y477347D02*
G03*
X215197Y477347I-197J0D01*
G01*
X348350Y283405D02*
X355831D01*
Y271595D02*
Y283405D01*
X348350Y271595D02*
X355831D01*
X340083Y275925D02*
Y279075D01*
X193417Y455709D02*
X195583D01*
X193417Y444291D02*
Y455709D01*
Y444291D02*
X195583D01*
Y455709D01*
X196961Y455905D02*
X201882D01*
X175713Y448622D02*
X177287D01*
X175713Y451378D02*
X177287D01*
X214734Y450056D02*
X218266D01*
X214734Y442944D02*
X218266D01*
X353500Y290744D02*
Y296256D01*
X173378Y301213D02*
Y302787D01*
X170622Y301213D02*
Y302787D01*
X186288Y308405D02*
X191210D01*
X184910Y296791D02*
Y308209D01*
X182745Y296791D02*
X184910D01*
X182745D02*
Y308209D01*
X184910D01*
X301543Y442114D02*
Y443886D01*
X294457Y442114D02*
Y443886D01*
X298000Y452547D02*
Y454516D01*
X297016Y453532D02*
X298984D01*
X284933Y444500D02*
X289067D01*
X305744Y443500D02*
X311256D01*
X320500Y471433D02*
Y475567D01*
X249516Y466413D02*
X251484D01*
X250500Y465429D02*
Y467398D01*
X246957Y454996D02*
Y456768D01*
X254043Y454996D02*
Y456768D01*
X205213Y434056D02*
X206787D01*
X205213Y436812D02*
X206787D01*
X197350Y386378D02*
X198925D01*
X197350Y383622D02*
X198925D01*
X186500Y348819D02*
Y351181D01*
X152157Y401618D02*
X173024D01*
X152157Y391382D02*
X171843D01*
X161500Y427744D02*
Y433256D01*
X166122Y410713D02*
Y412287D01*
X168878Y410713D02*
Y412287D01*
X191992Y402807D02*
X196126D01*
X190614Y391291D02*
Y402709D01*
X187661Y391291D02*
X190614D01*
X187661D02*
Y402709D01*
X190614D01*
X186059Y430299D02*
X190784D01*
X184681Y418291D02*
Y429709D01*
X182319Y418291D02*
X184681D01*
X182319D02*
Y429709D01*
X184681D01*
X309012Y297857D02*
X313146D01*
X312949Y342739D02*
X313146Y297857D01*
X309012Y342739D02*
X312949D01*
X293854D02*
X297988D01*
X293854Y297857D02*
Y342739D01*
Y297857D02*
X297988D01*
X284622Y336713D02*
Y338287D01*
X287378Y336713D02*
Y338287D01*
D13*
X270233Y316333D02*
G03*
X270233Y316333I-1969J0D01*
G01*
X312001Y290999D02*
X311001Y291999D01*
Y293998D01*
X312001Y294998D01*
X315999D01*
X316999Y293998D01*
Y291999D01*
X315999Y290999D01*
X316999Y289000D02*
Y287000D01*
Y288000D01*
X311001D01*
X312001Y289000D01*
X316999Y280002D02*
Y284001D01*
X313000Y280002D01*
X312001D01*
X311001Y281002D01*
Y283001D01*
X312001Y284001D01*
X333999Y288997D02*
X328001D01*
X330000Y286997D01*
X328001Y284998D01*
X333999D01*
X328001Y282998D02*
Y280999D01*
Y281999D01*
X333999D01*
Y282998D01*
Y280999D01*
X329001Y274002D02*
X328001Y275001D01*
Y277000D01*
X329001Y278000D01*
X332999D01*
X333999Y277000D01*
Y275001D01*
X332999Y274002D01*
X333999Y268003D02*
Y272002D01*
X330000Y268003D01*
X329001D01*
X328001Y269003D01*
Y271002D01*
X329001Y272002D01*
X214498Y459999D02*
Y455001D01*
X213499Y454001D01*
X211499D01*
X210500Y455001D01*
Y459999D01*
X204502D02*
X208500D01*
Y457000D01*
X206501Y458000D01*
X205501D01*
X204502Y457000D01*
Y455001D01*
X205501Y454001D01*
X207501D01*
X208500Y455001D01*
X239001Y476999D02*
X238001Y477998D01*
Y479998D01*
X239001Y480997D01*
X242999D01*
X243999Y479998D01*
Y477998D01*
X242999Y476999D01*
X243999Y471001D02*
Y474999D01*
X240000Y471001D01*
X239001D01*
X238001Y472000D01*
Y474000D01*
X239001Y474999D01*
Y469001D02*
X238001Y468002D01*
Y466002D01*
X239001Y465003D01*
X240000D01*
X241000Y466002D01*
Y467002D01*
Y466002D01*
X242000Y465003D01*
X242999D01*
X243999Y466002D01*
Y468002D01*
X242999Y469001D01*
X235998Y480001D02*
Y485999D01*
X232998D01*
X231999Y484999D01*
Y483000D01*
X232998Y482000D01*
X235998D01*
X233998D02*
X231999Y480001D01*
X229999D02*
X228000D01*
X229000D01*
Y485999D01*
X229999Y484999D01*
X225001D02*
X224002Y485999D01*
X222002D01*
X221002Y484999D01*
Y484000D01*
X222002Y483000D01*
X221002Y482000D01*
Y481001D01*
X222002Y480001D01*
X224002D01*
X225001Y481001D01*
Y482000D01*
X224002Y483000D01*
X225001Y484000D01*
Y484999D01*
X224002Y483000D02*
X222002D01*
X165499Y461498D02*
X159501D01*
Y458498D01*
X160501Y457499D01*
X162500D01*
X163500Y458498D01*
Y461498D01*
Y459498D02*
X165499Y457499D01*
Y455500D02*
Y453500D01*
Y454500D01*
X159501D01*
X160501Y455500D01*
X159501Y450501D02*
Y446502D01*
X160501D01*
X164499Y450501D01*
X165499D01*
X238499Y448499D02*
X239498Y449499D01*
X241498D01*
X242498Y448499D01*
Y444501D01*
X241498Y443501D01*
X239498D01*
X238499Y444501D01*
X236500Y443501D02*
X234500D01*
X235500D01*
Y449499D01*
X236500Y448499D01*
X227502Y449499D02*
X229502Y448499D01*
X231501Y446500D01*
Y444501D01*
X230502Y443501D01*
X228502D01*
X227502Y444501D01*
Y445500D01*
X228502Y446500D01*
X231501D01*
X290999Y347599D02*
X286001D01*
X285001Y348598D01*
Y350598D01*
X286001Y351597D01*
X290999D01*
X285001Y353597D02*
Y355596D01*
Y354596D01*
X290999D01*
X289999Y353597D01*
X358301Y305798D02*
X359301Y306798D01*
X361300D01*
X362300Y305798D01*
Y301800D01*
X361300Y300800D01*
X359301D01*
X358301Y301800D01*
X352303Y300800D02*
X356302D01*
X352303Y304799D01*
Y305798D01*
X353303Y306798D01*
X355302D01*
X356302Y305798D01*
X350304D02*
X349304Y306798D01*
X347305D01*
X346305Y305798D01*
Y304799D01*
X347305Y303799D01*
X346305Y302799D01*
Y301800D01*
X347305Y300800D01*
X349304D01*
X350304Y301800D01*
Y302799D01*
X349304Y303799D01*
X350304Y304799D01*
Y305798D01*
X349304Y303799D02*
X347305D01*
X178998Y310001D02*
Y315999D01*
X175998D01*
X174999Y314999D01*
Y313000D01*
X175998Y312000D01*
X178998D01*
X176998D02*
X174999Y310001D01*
X173000D02*
X171000D01*
X172000D01*
Y315999D01*
X173000Y314999D01*
X164002Y315999D02*
X168001D01*
Y313000D01*
X166002Y314000D01*
X165002D01*
X164002Y313000D01*
Y311001D01*
X165002Y310001D01*
X167001D01*
X168001Y311001D01*
X193998Y311001D02*
Y316999D01*
X191999Y315000D01*
X190000Y316999D01*
Y311001D01*
X188000Y316999D02*
Y311001D01*
X185001D01*
X184002Y312001D01*
Y315999D01*
X185001Y316999D01*
X188000D01*
X284501Y428501D02*
X283502Y427501D01*
X281502D01*
X280503Y428501D01*
Y432499D01*
X281502Y433499D01*
X283502D01*
X284501Y432499D01*
X290499Y433499D02*
X286501D01*
X290499Y429500D01*
Y428501D01*
X289500Y427501D01*
X287500D01*
X286501Y428501D01*
X295498Y433499D02*
Y427501D01*
X292499Y430500D01*
X296497D01*
X292498Y453501D02*
Y459499D01*
X289499D01*
X288500Y458499D01*
Y456500D01*
X289499Y455500D01*
X292498D01*
X290499D02*
X288500Y453501D01*
X286500Y458499D02*
X285501Y459499D01*
X283501D01*
X282502Y458499D01*
Y457500D01*
X283501Y456500D01*
X284501D01*
X283501D01*
X282502Y455500D01*
Y454501D01*
X283501Y453501D01*
X285501D01*
X286500Y454501D01*
X325999Y433501D02*
X326999Y432502D01*
Y430502D01*
X325999Y429503D01*
X322001D01*
X321001Y430502D01*
Y432502D01*
X322001Y433501D01*
X321001Y439499D02*
Y435501D01*
X325000Y439499D01*
X325999D01*
X326999Y438500D01*
Y436500D01*
X325999Y435501D01*
X326999Y445497D02*
Y441499D01*
X324000D01*
X325000Y443498D01*
Y444498D01*
X324000Y445497D01*
X322001D01*
X321001Y444498D01*
Y442498D01*
X322001Y441499D01*
X304001Y428001D02*
X303002Y427001D01*
X301002D01*
X300003Y428001D01*
Y431999D01*
X301002Y432999D01*
X303002D01*
X304001Y431999D01*
X309999Y432999D02*
X306001D01*
X309999Y429000D01*
Y428001D01*
X309000Y427001D01*
X307000D01*
X306001Y428001D01*
X315997Y427001D02*
X313998Y428001D01*
X311999Y430000D01*
Y431999D01*
X312998Y432999D01*
X314998D01*
X315997Y431999D01*
Y431000D01*
X314998Y430000D01*
X311999D01*
X340999Y484999D02*
X341998Y485999D01*
X343998D01*
X344997Y484999D01*
Y481001D01*
X343998Y480001D01*
X341998D01*
X340999Y481001D01*
X335001Y480001D02*
X338999D01*
X335001Y484000D01*
Y484999D01*
X336000Y485999D01*
X338000D01*
X338999Y484999D01*
X333001Y485999D02*
X329003D01*
Y484999D01*
X333001Y481001D01*
Y480001D01*
X335999Y470501D02*
Y476499D01*
X333000D01*
X332000Y475499D01*
Y473500D01*
X333000Y472500D01*
X335999D01*
X333999D02*
X332000Y470501D01*
X330001D02*
X328001D01*
X329001D01*
Y476499D01*
X330001Y475499D01*
X252999Y433501D02*
X253999Y432502D01*
Y430502D01*
X252999Y429502D01*
X249001D01*
X248001Y430502D01*
Y432502D01*
X249001Y433501D01*
X248001Y435500D02*
Y437500D01*
Y436500D01*
X253999D01*
X252999Y435500D01*
X248001Y443498D02*
X253999D01*
X251000Y440499D01*
Y444498D01*
X202002Y410501D02*
Y415499D01*
X203001Y416499D01*
X205001D01*
X206000Y415499D01*
Y410501D01*
X210999Y416499D02*
Y410501D01*
X208000Y413500D01*
X211998D01*
X211999Y391001D02*
X212999Y390002D01*
Y388002D01*
X211999Y387002D01*
X208001D01*
X207001Y388002D01*
Y390002D01*
X208001Y391001D01*
X207001Y393001D02*
Y395000D01*
Y394000D01*
X212999D01*
X211999Y393001D01*
Y397999D02*
X212999Y398998D01*
Y400998D01*
X211999Y401998D01*
X211000D01*
X210000Y400998D01*
X209000Y401998D01*
X208001D01*
X207001Y400998D01*
Y398998D01*
X208001Y397999D01*
X209000D01*
X210000Y398998D01*
X211000Y397999D01*
X211999D01*
X210000Y398998D02*
Y400998D01*
X187002Y379999D02*
Y374001D01*
X190001D01*
X191001Y375001D01*
Y377000D01*
X190001Y378000D01*
X187002D01*
X189002D02*
X191001Y379999D01*
X193000D02*
X195000D01*
X194000D01*
Y374001D01*
X193000Y375001D01*
X197999D02*
X198999Y374001D01*
X200998D01*
X201998Y375001D01*
Y378999D01*
X200998Y379999D01*
X198999D01*
X197999Y378999D01*
Y375001D01*
X188200Y337400D02*
Y343398D01*
X185201D01*
X184201Y342398D01*
Y340399D01*
X185201Y339399D01*
X188200D01*
X186201D02*
X184201Y337400D01*
X178203D02*
X182202D01*
X178203Y341399D01*
Y342398D01*
X179203Y343398D01*
X181202D01*
X182202Y342398D01*
X178999Y466499D02*
X179999Y467499D01*
X181998D01*
X182998Y466499D01*
Y462501D01*
X181998Y461501D01*
X179999D01*
X178999Y462501D01*
X176999Y461501D02*
X175000D01*
X176000D01*
Y467499D01*
X176999Y466499D01*
X172001D02*
X171001Y467499D01*
X169002D01*
X168002Y466499D01*
Y465500D01*
X169002Y464500D01*
X170002D01*
X169002D01*
X168002Y463500D01*
Y462501D01*
X169002Y461501D01*
X171001D01*
X172001Y462501D01*
X147499Y409501D02*
X148499Y408501D01*
Y406502D01*
X147499Y405502D01*
X143501D01*
X142501Y406502D01*
Y408501D01*
X143501Y409501D01*
X142501Y411501D02*
Y413500D01*
Y412500D01*
X148499D01*
X147499Y411501D01*
X143501Y416499D02*
X142501Y417498D01*
Y419498D01*
X143501Y420498D01*
X147499D01*
X148499Y419498D01*
Y417498D01*
X147499Y416499D01*
X146500D01*
X145500Y417498D01*
Y420498D01*
X140001Y400999D02*
Y397000D01*
X141001D01*
X144999Y400999D01*
X145999D01*
Y397000D01*
Y395001D02*
Y393001D01*
Y394001D01*
X140001D01*
X141001Y395001D01*
X165499Y441999D02*
X166498Y442999D01*
X168498D01*
X169497Y441999D01*
Y438001D01*
X168498Y437001D01*
X166498D01*
X165499Y438001D01*
X159501Y437001D02*
X163499D01*
X159501Y441000D01*
Y441999D01*
X160500Y442999D01*
X162500D01*
X163499Y441999D01*
X157501D02*
X156502Y442999D01*
X154502D01*
X153503Y441999D01*
Y438001D01*
X154502Y437001D01*
X156502D01*
X157501Y438001D01*
Y441999D01*
X169998Y418501D02*
Y424499D01*
X166999D01*
X165999Y423499D01*
Y421500D01*
X166999Y420500D01*
X169998D01*
X167998D02*
X165999Y418501D01*
X163999D02*
X162000D01*
X163000D01*
Y424499D01*
X163999Y423499D01*
X155002Y418501D02*
X159001D01*
X155002Y422500D01*
Y423499D01*
X156002Y424499D01*
X158001D01*
X159001Y423499D01*
X196200Y412998D02*
Y408000D01*
X195200Y407000D01*
X193201D01*
X192201Y408000D01*
Y412998D01*
X186203Y407000D02*
X190202D01*
X186203Y410999D01*
Y411998D01*
X187203Y412998D01*
X189202D01*
X190202Y411998D01*
X190900Y440098D02*
Y435100D01*
X189900Y434100D01*
X187901D01*
X186901Y435100D01*
Y440098D01*
X184902Y439098D02*
X183902Y440098D01*
X181903D01*
X180903Y439098D01*
Y438099D01*
X181903Y437099D01*
X182903D01*
X181903D01*
X180903Y436099D01*
Y435100D01*
X181903Y434100D01*
X183902D01*
X184902Y435100D01*
X298700Y362998D02*
Y361998D01*
X296701Y359999D01*
X294701Y361998D01*
Y362998D01*
X296701Y359999D02*
Y357000D01*
X292702D02*
X290703D01*
X291702D01*
Y362998D01*
X292702Y361998D01*
X289499Y330498D02*
X283501D01*
Y327499D01*
X284501Y326500D01*
X286500D01*
X287500Y327499D01*
Y330498D01*
Y328499D02*
X289499Y326500D01*
X288499Y324500D02*
X289499Y323501D01*
Y321501D01*
X288499Y320502D01*
X284501D01*
X283501Y321501D01*
Y323501D01*
X284501Y324500D01*
X285500D01*
X286500Y323501D01*
Y320502D01*
X305901Y367998D02*
X306901Y368998D01*
X308900D01*
X309900Y367998D01*
Y364000D01*
X308900Y363000D01*
X306901D01*
X305901Y364000D01*
X303902Y363000D02*
X301903D01*
X302902D01*
Y368998D01*
X303902Y367998D01*
X298904Y368998D02*
X294905D01*
Y367998D01*
X298904Y364000D01*
Y363000D01*
D112*
X273201Y308460D02*
G03*
X273201Y308460I-1000J0D01*
G01*
D113*
X212413Y431087D02*
G03*
X212413Y431087I-492J0D01*
G01*
D114*
X273185Y347633D02*
Y350782D01*
X270035D02*
X273185D01*
X270035Y311412D02*
X273185D01*
Y314562D01*
X233815Y311412D02*
Y314562D01*
Y311412D02*
X236965D01*
X233815Y350782D02*
X236965D01*
X233815Y347633D02*
Y350782D01*
D115*
X205819Y419669D02*
Y428331D01*
X208181Y419669D02*
Y428331D01*
X205819Y419669D02*
X208181D01*
X205819Y428331D02*
X208181D01*
M02*
